<svg xmlns="http://www.w3.org/2000/svg" width="30" height="24" viewBox="0 0 30 24" fill="none">
<path d="M3.05303 10.8964L2.92927 11.6148L2.20568 11.5264L1.41401 11.4298L3.32332 14.8029L5.91788 11.8923L5.50293 11.8397L4.71252 11.7396L4.84396 10.9538C5.77533 5.38543 10.2918 1.33665 16.0123 1.33665C17.742 1.33665 19.3765 1.67702 20.8426 2.32351C19.0722 1.33265 17.033 0.76563 14.9091 0.76563C9.08564 0.76563 4.02561 5.25121 3.05303 10.8964ZM25.6767 6.52474C25.6763 6.52407 25.6758 6.5234 25.6754 6.52273C25.6758 6.52334 25.6762 6.52396 25.6766 6.52457L25.6767 6.52474Z" fill="#173559" stroke="#173559" stroke-width="1.53131"/>
<path d="M26.9486 13.116L27.0723 12.3975L27.796 12.4859L28.5837 12.5822L26.6799 9.21622L24.0926 12.1207L24.5049 12.173L25.2951 12.2731L25.1638 13.0588C24.2342 18.6208 19.7258 22.6657 14.0148 22.6657C12.2958 22.6657 10.6712 22.3288 9.21272 21.6888C10.9753 22.672 13.0037 23.2343 15.1159 23.2343C20.9274 23.2343 25.9778 18.7547 26.9486 13.116ZM29.0289 13.3692L29.0287 13.3689L29.0289 13.3692ZM4.3671 17.4831C4.3673 17.4834 4.36749 17.4837 4.36768 17.4841L4.3671 17.4831Z" fill="#173559" stroke="#173559" stroke-width="1.53131"/>
<path fill-rule="evenodd" clip-rule="evenodd" d="M14.7915 15.3393C15.7509 15.3393 16.5043 15.4068 17.2579 15.4744L17.2579 15.4744C17.6348 15.5082 18.0116 15.5419 18.4143 15.5673C18.8997 15.5673 19.2167 15.5389 19.4254 15.4785C19.2168 15.5399 18.8997 15.569 18.4141 15.569V16.0873C18.4141 16.1367 18.4311 16.184 18.4614 16.2189C18.4917 16.2539 18.5328 16.2735 18.5756 16.2735H19.5401C19.583 16.2735 19.6241 16.2539 19.6543 16.2189C19.6846 16.184 19.7017 16.1367 19.7017 16.0873V15.3298C19.8228 15.2048 19.835 15.0275 19.8513 14.791C19.8568 14.71 19.8629 14.622 19.874 14.5268C19.8864 14.264 19.8832 13.8462 19.8791 13.3122L19.8791 13.312C19.8767 12.9968 19.874 12.6411 19.874 12.2529C19.874 11.673 19.8456 11.1729 19.4593 10.8089C19.1904 10.5933 19.0167 10.2835 18.7527 9.8128C18.5301 9.41571 18.2432 8.90409 17.7807 8.2378C17.4953 7.84259 17.132 7.83119 15.9433 7.80383H14.8298H13.7169C12.5302 7.83119 12.1643 7.84259 11.8788 8.2378C11.4163 8.90409 11.1295 9.41571 10.9068 9.8128C10.6429 10.2835 10.4692 10.5933 10.2002 10.8089C9.8139 11.1745 9.78555 11.6745 9.78555 12.2529C9.78555 12.6412 9.783 12.9969 9.78075 13.3122C9.77693 13.8462 9.77394 14.264 9.78555 14.5268C9.79659 14.6224 9.80255 14.7107 9.80803 14.7919C9.82411 15.0305 9.83614 15.2089 9.96094 15.3339V16.0892C9.96094 16.1386 9.97796 16.186 10.0082 16.2209C10.0385 16.2558 10.0796 16.2754 10.1225 16.2754H11.0877C11.1305 16.2754 11.1716 16.2558 11.2019 16.2209C11.2322 16.186 11.2492 16.1386 11.2492 16.0892V15.5679H11.2485C11.0382 15.5679 10.8595 15.5624 10.7076 15.5513C10.8587 15.5621 11.0361 15.5673 11.2446 15.5673C11.6402 15.5419 11.9763 15.508 12.3122 15.4742C12.9822 15.4067 13.6516 15.3393 14.7915 15.3393ZM10.6336 10.284L10.0547 10.2529C10.0147 10.2528 9.97514 10.2428 9.93884 10.2233C9.90253 10.2039 9.87034 10.1756 9.84449 10.1404C9.81864 10.1051 9.79975 10.0638 9.78915 10.0194C9.77854 9.97487 9.77647 9.92825 9.78308 9.88274L9.82527 9.59242C9.82789 9.56104 9.84055 9.53191 9.86078 9.51069C9.88101 9.48948 9.90737 9.4777 9.93471 9.47766H10.5828C10.5982 9.47769 10.6135 9.48142 10.6276 9.48863C10.6417 9.49584 10.6543 9.50637 10.6647 9.51953C10.675 9.5327 10.6829 9.54821 10.6877 9.56508C10.6926 9.58195 10.6944 9.5998 10.6929 9.6175L10.6659 9.9405V9.96634C10.6646 9.99516 10.6731 10.0234 10.6896 10.0451C10.7061 10.0668 10.7293 10.0803 10.7542 10.0826C10.7127 10.1548 10.6725 10.2209 10.6336 10.284ZM19.0282 10.2857L19.6077 10.2545C19.6475 10.2544 19.6869 10.2444 19.723 10.2251C19.7592 10.2058 19.7912 10.1777 19.8171 10.1427C19.8429 10.1078 19.8618 10.0668 19.8726 10.0226C19.8833 9.97836 19.8856 9.93199 19.8793 9.88665L19.8371 9.59633C19.8345 9.56495 19.8219 9.53581 19.8016 9.5146C19.7814 9.49339 19.755 9.48161 19.7277 9.48157H19.0796C19.0642 9.48158 19.049 9.48532 19.0349 9.49254C19.0209 9.49975 19.0083 9.51029 18.998 9.52347C18.9876 9.53665 18.9798 9.55217 18.9751 9.56904C18.9703 9.58591 18.9686 9.60375 18.9702 9.62141L18.9965 9.94441V9.96797C18.9977 9.99674 18.9891 10.0249 18.9726 10.0466C18.9562 10.0682 18.9331 10.0817 18.9082 10.0843C18.9497 10.1565 18.9893 10.2226 19.0282 10.2857ZM17.1568 8.20493C16.7836 8.10461 14.8315 8.10461 14.8315 8.10461C14.8315 8.10461 12.88 8.10461 12.5068 8.20493C12.3964 8.23071 12.2945 8.29182 12.2128 8.38126C12.0783 8.53326 11.3491 9.72722 11.2489 9.97727C11.2451 9.987 11.2436 9.99765 11.2443 10.0083C11.2451 10.0189 11.2481 10.0291 11.2531 10.038C11.2582 10.0469 11.2651 10.0542 11.2732 10.0593C11.2813 10.0643 11.2904 10.067 11.2996 10.0669H18.3639C18.3732 10.067 18.3823 10.0644 18.3904 10.0594C18.3985 10.0543 18.4054 10.047 18.4104 10.038C18.4154 10.0291 18.4184 10.0188 18.419 10.0082C18.4196 9.99756 18.4179 9.98692 18.414 9.97727C18.3145 9.7295 17.5827 8.53782 17.4508 8.38126C17.369 8.29195 17.2671 8.23087 17.1568 8.20493ZM10.1211 12.9587C10.1211 12.9862 10.1287 13.0129 10.1428 13.035C10.157 13.0572 10.1768 13.0736 10.1995 13.0818C10.4373 13.1674 11.1903 13.3707 11.6995 13.5081L11.6995 13.5081L11.6995 13.5081L11.6997 13.5081L11.6999 13.5082C11.9135 13.5659 12.0841 13.6119 12.1557 13.6328C12.1657 13.6361 12.1764 13.636 12.1864 13.6326C12.1965 13.6292 12.2054 13.6225 12.2123 13.6135C12.2192 13.6044 12.2238 13.5933 12.2254 13.5814C12.227 13.5694 12.2257 13.5572 12.2216 13.5462C12.1873 13.4527 12.1115 13.2551 12.0383 13.0681C11.9328 12.7953 11.6816 12.7056 11.4337 12.6174L10.4145 12.2549C10.3808 12.2429 10.3452 12.2401 10.3104 12.2469C10.2757 12.2537 10.2428 12.2698 10.2144 12.2939C10.1861 12.318 10.163 12.3495 10.1472 12.3857C10.1313 12.422 10.123 12.4621 10.1231 12.5027L10.1211 12.9587ZM19.4722 12.9587C19.4722 12.9862 19.4645 13.0129 19.4504 13.035C19.4363 13.0572 19.4165 13.0736 19.3937 13.0818C19.1556 13.1674 18.4034 13.3705 17.8944 13.5079C17.6803 13.5657 17.5093 13.6119 17.4376 13.6328C17.4275 13.6361 17.4169 13.636 17.4068 13.6326C17.3968 13.6292 17.3878 13.6225 17.3809 13.6135C17.374 13.6044 17.3695 13.5933 17.3679 13.5814C17.3662 13.5694 17.3676 13.5572 17.3717 13.5462C17.406 13.4527 17.4818 13.2551 17.5543 13.0681C17.6605 12.7953 17.9116 12.7056 18.1589 12.6174L19.1788 12.2549C19.2125 12.2429 19.2481 12.2401 19.2828 12.2469C19.3176 12.2537 19.3505 12.2698 19.3788 12.2939C19.4072 12.318 19.4302 12.3495 19.4461 12.3857C19.462 12.422 19.4702 12.4621 19.4702 12.5027L19.4722 12.9587ZM16.1699 14.8008H13.4253C13.4088 14.8008 13.3931 14.7932 13.3814 14.7798C13.3698 14.7664 13.3633 14.7483 13.3633 14.7293V14.0347C13.3635 14.0159 13.3701 13.9979 13.3817 13.9846C13.3933 13.9714 13.4089 13.964 13.4253 13.964H16.1699C16.2042 13.964 16.2318 14.7293 16.2318 14.7293C16.2318 14.7387 16.2302 14.748 16.2271 14.7567C16.224 14.7653 16.2194 14.7732 16.2137 14.7798C16.2079 14.7865 16.2011 14.7917 16.1936 14.7953C16.1861 14.7989 16.178 14.8008 16.1699 14.8008Z" fill="#173559"/>
<path d="M17.2579 15.4744L17.2757 15.3138L17.2723 15.3135L17.2579 15.4744ZM17.2579 15.4744L17.24 15.6349L17.2435 15.6352L17.2579 15.4744ZM18.4143 15.5673L18.4042 15.7288H18.4143V15.5673ZM19.4254 15.4785L19.471 15.6335L19.3805 15.3234L19.4254 15.4785ZM18.4141 15.569V15.4074H18.2525V15.569H18.4141ZM19.6543 16.2189L19.7764 16.3248L19.7764 16.3248L19.6543 16.2189ZM19.7017 15.3298L19.5857 15.2174L19.5401 15.2643V15.3298H19.7017ZM19.8513 14.791L20.0124 14.8021L19.8513 14.791ZM19.874 14.5268L20.0348 14.5456L20.0353 14.5345L19.874 14.5268ZM19.8791 13.3122L20.0406 13.311L20.0406 13.3102L19.8791 13.3122ZM19.8791 13.312L19.7176 13.3132L19.7176 13.3141L19.8791 13.312ZM19.4593 10.8089L19.5704 10.691L19.5603 10.6829L19.4593 10.8089ZM18.7527 9.8128L18.8936 9.7338L18.7527 9.8128ZM17.7807 8.2378L17.9135 8.14568L17.9117 8.14322L17.7807 8.2378ZM15.9433 7.80383L15.947 7.64232H15.9433V7.80383ZM13.7169 7.80383V7.64227L13.7132 7.64236L13.7169 7.80383ZM11.8788 8.2378L11.7478 8.1432L11.7461 8.1457L11.8788 8.2378ZM10.9068 9.8128L10.7659 9.7338L10.9068 9.8128ZM10.2002 10.8089L10.0989 10.6824L10.0892 10.6916L10.2002 10.8089ZM9.78075 13.3122L9.94226 13.3134L9.78075 13.3122ZM9.78555 14.5268L9.62378 14.534L9.6251 14.5454L9.78555 14.5268ZM9.80803 14.7919L9.64688 14.8028L9.80803 14.7919ZM9.96094 15.3339H10.1225V15.2672L10.0753 15.2199L9.96094 15.3339ZM11.2019 16.2209L11.3239 16.3267L11.3239 16.3267L11.2019 16.2209ZM11.2492 15.5679H11.4107V15.4063H11.2492V15.5679ZM10.7076 15.5513L10.7191 15.3902L10.6958 15.7124L10.7076 15.5513ZM11.2446 15.5673V15.7291L11.2549 15.7285L11.2446 15.5673ZM12.3122 15.4742L12.3284 15.6349L12.3122 15.4742ZM10.0547 10.2529L10.0634 10.0914L10.0548 10.0913L10.0547 10.2529ZM10.6336 10.284L10.6249 10.4453L10.7207 10.4505L10.771 10.3688L10.6336 10.284ZM9.93884 10.2233L10.015 10.0809L10.015 10.0809L9.93884 10.2233ZM9.84449 10.1404L9.9747 10.0448L9.9747 10.0448L9.84449 10.1404ZM9.78915 10.0194L9.94626 9.98191L9.78915 10.0194ZM9.78308 9.88274L9.62324 9.85951L9.62324 9.85954L9.78308 9.88274ZM9.82527 9.59242L9.98541 9.6157L9.98623 9.60586L9.82527 9.59242ZM9.86078 9.51069L9.97767 9.62216H9.97767L9.86078 9.51069ZM9.93471 9.47766V9.31614L9.93446 9.31614L9.93471 9.47766ZM10.5828 9.47766L10.5831 9.31614H10.5828V9.47766ZM10.6276 9.48863L10.554 9.63243L10.554 9.63243L10.6276 9.48863ZM10.6647 9.51953L10.5378 9.61945L10.5378 9.61945L10.6647 9.51953ZM10.6877 9.56508L10.5325 9.60982L10.5325 9.60982L10.6877 9.56508ZM10.6929 9.6175L10.8539 9.63097L10.8539 9.63086L10.6929 9.6175ZM10.6659 9.9405L10.5043 9.92699V9.9405H10.6659ZM10.6659 9.96634L10.8274 9.97353V9.96634H10.6659ZM10.6896 10.0451L10.561 10.1428L10.561 10.1428L10.6896 10.0451ZM10.7542 10.0826L10.8942 10.1632L11.0196 9.94523L10.7693 9.92181L10.7542 10.0826ZM19.6077 10.2545L19.6074 10.0928L19.599 10.0932L19.6077 10.2545ZM19.0282 10.2857L18.8907 10.3704L18.9411 10.4521L19.0369 10.4469L19.0282 10.2857ZM19.723 10.2251L19.7991 10.3676L19.7991 10.3676L19.723 10.2251ZM19.8171 10.1427L19.6871 10.0468L19.6871 10.0468L19.8171 10.1427ZM19.8726 10.0226L19.7156 9.98439V9.9844L19.8726 10.0226ZM19.8793 9.88665L20.0393 9.86446L20.0392 9.86342L19.8793 9.88665ZM19.8371 9.59633L19.6759 9.60979L19.6773 9.61956L19.8371 9.59633ZM19.7277 9.48157L19.728 9.32005H19.7277V9.48157ZM19.0796 9.48157V9.32005L19.0795 9.32005L19.0796 9.48157ZM19.0349 9.49254L18.9612 9.34883L18.9612 9.34883L19.0349 9.49254ZM18.998 9.52347L19.1252 9.62302L19.1252 9.62301L18.998 9.52347ZM18.9751 9.56904L19.1304 9.61312L19.1304 9.61311L18.9751 9.56904ZM18.9702 9.62141L19.1312 9.60826L19.1311 9.60712L18.9702 9.62141ZM18.9965 9.94441H19.1586L19.1575 9.93127L18.9965 9.94441ZM18.9965 9.96797H18.8349L18.8352 9.97422L18.9965 9.96797ZM18.9726 10.0466L19.1012 10.1443L19.1012 10.1443L18.9726 10.0466ZM18.9082 10.0843L18.8919 9.92355L18.6439 9.94866L18.7682 10.1648L18.9082 10.0843ZM17.1568 8.20493L17.1148 8.36099L17.1198 8.36217L17.1568 8.20493ZM12.5068 8.20493L12.5435 8.36231L12.5487 8.36091L12.5068 8.20493ZM12.2128 8.38126L12.0935 8.2723L12.0918 8.27422L12.2128 8.38126ZM11.2489 9.97727L11.0989 9.91717L11.0981 9.91937L11.2489 9.97727ZM11.2443 10.0083L11.4054 9.99695L11.4054 9.99695L11.2443 10.0083ZM11.2531 10.038L11.3937 9.95843L11.3937 9.95843L11.2531 10.038ZM11.2996 10.0669V9.90543L11.2992 9.90543L11.2996 10.0669ZM18.3639 10.0669L18.3656 9.90543H18.3639V10.0669ZM18.3904 10.0594L18.3051 9.92223L18.3051 9.92223L18.3904 10.0594ZM18.4104 10.038L18.5514 10.1168L18.5514 10.1168L18.4104 10.038ZM18.419 10.0082L18.2578 9.99859L18.2578 9.9986L18.419 10.0082ZM18.414 9.97727L18.2642 10.0375L18.2642 10.0377L18.414 9.97727ZM17.4508 8.38126L17.5745 8.27712L17.5699 8.27217L17.4508 8.38126ZM10.1428 13.035L10.0066 13.1218L10.0066 13.1218L10.1428 13.035ZM10.1211 12.9587L9.95958 12.958L9.95958 12.9588L10.1211 12.9587ZM10.1995 13.0818L10.1445 13.2336L10.1448 13.2338L10.1995 13.0818ZM11.6995 13.5081L11.7506 13.3546L11.7416 13.3522L11.6995 13.5081ZM11.6995 13.5081L11.6484 13.6615L11.6554 13.6635L11.6995 13.5081ZM11.6995 13.5081L11.6555 13.6635L11.6583 13.6643L11.6995 13.5081ZM11.6997 13.5081L11.7418 13.3522L11.7409 13.352L11.6997 13.5081ZM11.6999 13.5082L11.6578 13.6641L11.6578 13.6642L11.6999 13.5082ZM12.1557 13.6328L12.2057 13.4791L12.2009 13.4778L12.1557 13.6328ZM12.2254 13.5814L12.3854 13.6033L12.3854 13.6033L12.2254 13.5814ZM12.2216 13.5462L12.0699 13.6018L12.0702 13.6026L12.2216 13.5462ZM12.0383 13.0681L11.8877 13.1264L11.8879 13.127L12.0383 13.0681ZM11.4337 12.6174L11.3796 12.7696L11.3796 12.7696L11.4337 12.6174ZM10.4145 12.2549L10.3601 12.407L10.3604 12.4071L10.4145 12.2549ZM10.3104 12.2469L10.3413 12.4054L10.3413 12.4054L10.3104 12.2469ZM10.2144 12.2939L10.3191 12.4169L10.3191 12.4169L10.2144 12.2939ZM10.1472 12.3857L9.9992 12.321L9.9992 12.321L10.1472 12.3857ZM10.1231 12.5027L10.2846 12.5034L10.2846 12.5026L10.1231 12.5027ZM19.4504 13.035L19.3142 12.9482L19.3142 12.9482L19.4504 13.035ZM19.4722 12.9587L19.6337 12.9588L19.6337 12.958L19.4722 12.9587ZM19.3937 13.0818L19.4484 13.2338L19.4488 13.2336L19.3937 13.0818ZM17.8944 13.5079L17.9365 13.6638V13.6638L17.8944 13.5079ZM17.4376 13.6328L17.3923 13.4777L17.3876 13.4792L17.4376 13.6328ZM17.3679 13.5814L17.2079 13.6033V13.6033L17.3679 13.5814ZM17.3717 13.5462L17.523 13.6026L17.5233 13.6018L17.3717 13.5462ZM17.5543 13.0681L17.4038 13.0096L17.4037 13.0097L17.5543 13.0681ZM18.1589 12.6174L18.1048 12.4652L18.1046 12.4653L18.1589 12.6174ZM19.1788 12.2549L19.2329 12.4071L19.2332 12.407L19.1788 12.2549ZM19.2828 12.2469L19.252 12.4054L19.252 12.4054L19.2828 12.2469ZM19.3788 12.2939L19.4835 12.1708L19.4835 12.1708L19.3788 12.2939ZM19.4461 12.3857L19.2981 12.4505L19.2981 12.4505L19.4461 12.3857ZM19.4702 12.5027L19.3087 12.5026L19.3087 12.5034L19.4702 12.5027ZM13.3633 14.0347L13.2018 14.0332V14.0347H13.3633ZM13.3817 13.9846L13.5031 14.0911L13.5031 14.0911L13.3817 13.9846ZM13.4253 13.964L13.4252 14.1255H13.4253V13.964ZM16.2318 14.7293H16.3935L16.3933 14.7235L16.2318 14.7293ZM16.2271 14.7567L16.3791 14.8113L16.3791 14.8113L16.2271 14.7567ZM16.2137 14.7798L16.3357 14.8857L16.3357 14.8857L16.2137 14.7798ZM16.1936 14.7953L16.2632 14.9411L16.2632 14.9411L16.1936 14.7953ZM17.2723 15.3135C16.5187 15.2459 15.7588 15.1778 14.7915 15.1778V15.5008C15.743 15.5008 16.49 15.5677 17.2434 15.6352L17.2723 15.3135ZM17.2757 15.3138L17.2757 15.3138L17.24 15.6349L17.2401 15.6349L17.2757 15.3138ZM18.4245 15.4061C18.0242 15.3809 17.6494 15.3473 17.2723 15.3135L17.2435 15.6352C17.6201 15.669 17.999 15.703 18.4042 15.7285L18.4245 15.4061ZM19.3805 15.3234C19.1954 15.3769 18.8981 15.4058 18.4143 15.4058V15.7288C18.9012 15.7288 19.2381 15.7009 19.4703 15.6337L19.3805 15.3234ZM18.4141 15.7305C18.9014 15.7305 19.2386 15.7019 19.471 15.6335L19.3799 15.3236C19.1951 15.3779 18.898 15.4074 18.4141 15.4074V15.7305ZM18.5756 16.0873V15.569H18.2525V16.0873H18.5756ZM18.5834 16.1131C18.5804 16.1097 18.5756 16.1007 18.5756 16.0873H18.2525C18.2525 16.1727 18.2818 16.2584 18.3394 16.3248L18.5834 16.1131ZM18.5756 16.112C18.5791 16.112 18.5818 16.1128 18.5834 16.1135C18.5849 16.1143 18.5846 16.1145 18.5834 16.1131L18.3394 16.3248C18.3976 16.3919 18.4819 16.435 18.5756 16.435V16.112ZM19.5401 16.112H18.5756V16.435H19.5401V16.112ZM19.5323 16.1131C19.5311 16.1145 19.5308 16.1143 19.5323 16.1135C19.5339 16.1128 19.5366 16.112 19.5401 16.112V16.435C19.6338 16.435 19.7181 16.3919 19.7764 16.3248L19.5323 16.1131ZM19.5401 16.0873C19.5401 16.1007 19.5353 16.1097 19.5323 16.1131L19.7764 16.3248C19.8339 16.2584 19.8632 16.1727 19.8632 16.0873H19.5401ZM19.5401 15.3298V16.0873H19.8632V15.3298H19.5401ZM19.6901 14.7799C19.6817 14.9018 19.6752 14.9917 19.6582 15.0666C19.6423 15.1373 19.6194 15.1826 19.5857 15.2174L19.8176 15.4422C19.9051 15.352 19.9489 15.2461 19.9733 15.1378C19.9969 15.0337 20.0045 14.9167 20.0124 14.8021L19.6901 14.7799ZM19.7135 14.5082C19.702 14.6077 19.6957 14.6992 19.6901 14.7799L20.0124 14.8021C20.018 14.7208 20.0238 14.6364 20.0344 14.5455L19.7135 14.5082ZM19.7176 13.3135C19.7217 13.8498 19.7248 14.262 19.7126 14.5192L20.0353 14.5345C20.048 14.2661 20.0447 13.8425 20.0406 13.311L19.7176 13.3135ZM19.7176 13.3141L19.7176 13.3143L20.0406 13.3102L20.0406 13.3099L19.7176 13.3141ZM19.7125 12.2529C19.7125 12.6418 19.7152 12.9981 19.7176 13.3132L20.0406 13.3108C20.0382 12.9955 20.0355 12.6404 20.0355 12.2529H19.7125ZM19.3485 10.9264C19.678 11.2369 19.7125 11.6656 19.7125 12.2529H20.0355C20.0355 11.6804 20.0133 11.109 19.5701 10.6913L19.3485 10.9264ZM18.6118 9.89179C18.8708 10.3537 19.0597 10.6955 19.3583 10.9349L19.5603 10.6829C19.321 10.491 19.1625 10.2134 18.8936 9.7338L18.6118 9.89179ZM17.6481 8.32989C18.1059 8.98958 18.3897 9.49568 18.6118 9.89179L18.8936 9.7338C18.6704 9.33575 18.3805 8.81859 17.9134 8.1457L17.6481 8.32989ZM15.9396 7.96531C16.5409 7.97915 16.9112 7.98906 17.1687 8.04118C17.2937 8.06647 17.3837 8.10034 17.4557 8.14468C17.527 8.18851 17.5883 8.24723 17.6498 8.33237L17.9117 8.14322C17.8304 8.03076 17.7393 7.93985 17.625 7.86954C17.5115 7.79974 17.3829 7.75495 17.2328 7.72456C16.9401 7.66534 16.5344 7.65588 15.947 7.64236L15.9396 7.96531ZM14.8298 7.96535H15.9433V7.64232H14.8298V7.96535ZM13.7169 7.96535H14.8298V7.64232H13.7169V7.96535ZM12.0097 8.33237C12.0711 8.24734 12.1326 8.18862 12.204 8.14477C12.2763 8.10039 12.3666 8.06649 12.4919 8.04119C12.7498 7.98906 13.1203 7.97915 13.7206 7.96531L13.7132 7.64236C13.1267 7.65588 12.7209 7.66535 12.4279 7.72456C12.2776 7.75492 12.1487 7.79969 12.0351 7.86945C11.9205 7.93974 11.8292 8.03064 11.7479 8.14322L12.0097 8.33237ZM11.0477 9.89179C11.2698 9.49568 11.5536 8.98958 12.0115 8.32989L11.7461 8.1457C11.2791 8.81859 10.9891 9.33575 10.7659 9.7338L11.0477 9.89179ZM10.3013 10.9349C10.5998 10.6955 10.7887 10.3537 11.0477 9.89179L10.7659 9.7338C10.497 10.2134 10.3385 10.491 10.0992 10.6829L10.3013 10.9349ZM9.94707 12.2529C9.94707 11.6673 9.98148 11.2382 10.3113 10.9262L10.0892 10.6916C9.64631 11.1107 9.62403 11.6817 9.62403 12.2529H9.94707ZM9.94226 13.3134C9.94452 12.9981 9.94707 12.6418 9.94707 12.2529H9.62403C9.62403 12.6405 9.62149 12.9957 9.61924 13.3111L9.94226 13.3134ZM9.94691 14.5197C9.93553 14.2621 9.93843 13.8496 9.94226 13.3134L9.61924 13.3111C9.61543 13.8428 9.61235 14.2659 9.62419 14.534L9.94691 14.5197ZM9.96918 14.7811C9.96372 14.7001 9.95755 14.6082 9.946 14.5083L9.6251 14.5454C9.63564 14.6366 9.64137 14.7212 9.64688 14.8028L9.96918 14.7811ZM10.0753 15.2199C10.0406 15.1851 10.0173 15.14 10.0012 15.0694C9.98398 14.9944 9.97747 14.9041 9.96918 14.7811L9.64688 14.8028C9.65467 14.9184 9.66222 15.0365 9.68627 15.1415C9.71135 15.2511 9.75651 15.3577 9.84659 15.448L10.0753 15.2199ZM10.1225 16.0892V15.3339H9.79942V16.0892H10.1225ZM10.1303 16.1151C10.1273 16.1116 10.1225 16.1026 10.1225 16.0892H9.79942C9.79942 16.1746 9.82864 16.2603 9.88624 16.3267L10.1303 16.1151ZM10.1225 16.1139C10.1259 16.1139 10.1287 16.1148 10.1302 16.1155C10.1317 16.1162 10.1315 16.1165 10.1303 16.1151L9.88624 16.3267C9.94446 16.3939 10.0288 16.4369 10.1225 16.4369V16.1139ZM11.0877 16.1139H10.1225V16.4369H11.0877V16.1139ZM11.0799 16.1151C11.0786 16.1165 11.0784 16.1162 11.0799 16.1155C11.0814 16.1148 11.0842 16.1139 11.0877 16.1139V16.4369C11.1813 16.4369 11.2657 16.3939 11.3239 16.3267L11.0799 16.1151ZM11.0877 16.0892C11.0877 16.1026 11.0829 16.1116 11.0799 16.1151L11.3239 16.3267C11.3815 16.2603 11.4107 16.1746 11.4107 16.0892H11.0877ZM11.0877 15.5679V16.0892H11.4107V15.5679H11.0877ZM11.2485 15.7294H11.2492V15.4063H11.2485V15.7294ZM10.6958 15.7124C10.8528 15.7239 11.0357 15.7294 11.2485 15.7294V15.4063C11.0408 15.4063 10.8662 15.401 10.7194 15.3902L10.6958 15.7124ZM11.2446 15.4058C11.0386 15.4058 10.8652 15.4006 10.7191 15.3902L10.6961 15.7124C10.8522 15.7235 11.0336 15.7288 11.2446 15.7288V15.4058ZM12.2961 15.3135C11.96 15.3474 11.6266 15.3809 11.2342 15.4061L11.2549 15.7285C11.6538 15.7029 11.9926 15.6687 12.3284 15.6349L12.2961 15.3135ZM14.7915 15.1778C13.6436 15.1778 12.968 15.2458 12.2961 15.3135L12.3284 15.6349C12.9965 15.5676 13.6596 15.5008 14.7915 15.5008V15.1778ZM10.046 10.4141L10.6249 10.4453L10.6422 10.1227L10.0634 10.0916L10.046 10.4141ZM9.86263 10.3657C9.92164 10.3973 9.98723 10.4143 10.0546 10.4144L10.0548 10.0913C10.0421 10.0913 10.0286 10.0882 10.015 10.0809L9.86263 10.3657ZM9.71427 10.2359C9.75351 10.2894 9.80376 10.3342 9.86263 10.3657L10.015 10.0809C10.0013 10.0736 9.98717 10.0618 9.9747 10.0448L9.71427 10.2359ZM9.63203 10.0568C9.6474 10.1213 9.67507 10.1825 9.71427 10.2359L9.9747 10.0448C9.9622 10.0278 9.95211 10.0064 9.94626 9.98191L9.63203 10.0568ZM9.62324 9.85954C9.61371 9.92514 9.61666 9.99234 9.63203 10.0568L9.94626 9.98191C9.94042 9.95739 9.93923 9.93136 9.94292 9.90595L9.62324 9.85954ZM9.66543 9.56919L9.62324 9.85951L9.94292 9.90597L9.98511 9.61565L9.66543 9.56919ZM9.74389 9.39922C9.69626 9.44917 9.66976 9.51378 9.66431 9.57898L9.98623 9.60586C9.98603 9.60831 9.98484 9.61464 9.97767 9.62216L9.74389 9.39922ZM9.93446 9.31614C9.85962 9.31626 9.79211 9.34867 9.74389 9.39922L9.97767 9.62216C9.96991 9.63029 9.95511 9.63915 9.93497 9.63918L9.93446 9.31614ZM10.5828 9.31614H9.93471V9.63918H10.5828V9.31614ZM10.7011 9.34483C10.6649 9.32634 10.6247 9.31621 10.5831 9.31614L10.5825 9.63918C10.5718 9.63916 10.562 9.63651 10.554 9.63243L10.7011 9.34483ZM10.7916 9.41962C10.7676 9.38923 10.7371 9.36326 10.7011 9.34483L10.554 9.63243C10.5462 9.62842 10.5409 9.6235 10.5378 9.61945L10.7916 9.41962ZM10.8429 9.52034C10.8326 9.4844 10.8154 9.44995 10.7916 9.41962L10.5378 9.61945C10.5346 9.61544 10.5332 9.61201 10.5325 9.60982L10.8429 9.52034ZM10.8539 9.63086C10.8569 9.59384 10.8533 9.55629 10.8429 9.52034L10.5325 9.60982C10.5319 9.60762 10.5318 9.60577 10.5319 9.60414L10.8539 9.63086ZM10.8268 9.95397L10.8539 9.63097L10.5319 9.60403L10.5049 9.92703L10.8268 9.95397ZM10.8274 9.96634V9.9405H10.5043V9.96634H10.8274ZM10.8182 9.94742C10.8259 9.95761 10.8275 9.967 10.8272 9.97352L10.5045 9.95916C10.5017 10.0233 10.5202 10.0892 10.561 10.1428L10.8182 9.94742ZM10.7693 9.92181C10.7936 9.92408 10.81 9.93666 10.8182 9.94742L10.561 10.1428C10.6021 10.197 10.665 10.2365 10.7392 10.2434L10.7693 9.92181ZM10.771 10.3688C10.8103 10.3052 10.8515 10.2375 10.8942 10.1632L10.6142 10.0021C10.5739 10.0722 10.5346 10.1367 10.4961 10.1993L10.771 10.3688ZM19.599 10.0932L19.0195 10.1244L19.0369 10.4469L19.6164 10.4158L19.599 10.0932ZM19.647 10.0826C19.6334 10.0898 19.62 10.0929 19.6074 10.093L19.608 10.416C19.6751 10.4159 19.7403 10.3989 19.7991 10.3676L19.647 10.0826ZM19.6871 10.0468C19.6747 10.0636 19.6606 10.0753 19.647 10.0826L19.7991 10.3676C19.8577 10.3363 19.9078 10.2918 19.947 10.2387L19.6871 10.0468ZM19.7156 9.9844C19.7097 10.0087 19.6996 10.0299 19.6871 10.0468L19.947 10.2387C19.9862 10.1856 20.0139 10.1248 20.0295 10.0607L19.7156 9.9844ZM19.7193 9.90884C19.7229 9.93417 19.7215 9.96006 19.7156 9.98439L20.0295 10.0607C20.0451 9.99665 20.0484 9.9298 20.0393 9.86446L19.7193 9.90884ZM19.6773 9.61956L19.7195 9.90988L20.0392 9.86342L19.997 9.5731L19.6773 9.61956ZM19.6847 9.62607C19.6776 9.61854 19.6764 9.61221 19.6762 9.60976L19.9981 9.58289C19.9927 9.51769 19.9662 9.45308 19.9185 9.40313L19.6847 9.62607ZM19.7274 9.64308C19.7073 9.64305 19.6925 9.6342 19.6847 9.62607L19.9185 9.40313C19.8703 9.35257 19.8028 9.32017 19.728 9.32005L19.7274 9.64308ZM19.0796 9.64309H19.7277V9.32005H19.0796V9.64309ZM19.1087 9.63624C19.1006 9.64038 19.0907 9.64308 19.0798 9.64309L19.0795 9.32005C19.0378 9.32009 18.9974 9.33025 18.9612 9.34883L19.1087 9.63624ZM19.1252 9.62301C19.1219 9.62715 19.1166 9.63216 19.1087 9.63624L18.9612 9.34883C18.9251 9.36735 18.8946 9.39343 18.8708 9.42393L19.1252 9.62301ZM19.1304 9.61311C19.1298 9.61541 19.1284 9.61892 19.1252 9.62302L18.8708 9.42392C18.8469 9.45437 18.8299 9.48893 18.8197 9.52497L19.1304 9.61311ZM19.1311 9.60712C19.1312 9.60888 19.1311 9.61083 19.1304 9.61312L18.8197 9.52496C18.8094 9.561 18.806 9.59862 18.8093 9.63569L19.1311 9.60712ZM19.1575 9.93127L19.1312 9.60826L18.8092 9.63455L18.8356 9.95755L19.1575 9.93127ZM19.1581 9.96797V9.94441H18.835V9.96797H19.1581ZM19.1012 10.1443C19.1417 10.091 19.1604 10.0255 19.1579 9.96172L18.8352 9.97422C18.8349 9.96795 18.8365 9.95882 18.844 9.94886L19.1012 10.1443ZM18.9245 10.2449C18.9981 10.2375 19.0603 10.1981 19.1012 10.1443L18.844 9.94885C18.852 9.93834 18.8681 9.92597 18.8919 9.92355L18.9245 10.2449ZM19.1657 10.2009C19.1276 10.1391 19.0889 10.0744 19.0482 10.0037L18.7682 10.1648C18.8106 10.2385 18.851 10.306 18.8907 10.3704L19.1657 10.2009ZM14.8315 8.10461C14.8315 8.26613 14.8315 8.26613 14.8315 8.26613C14.8315 8.26613 14.8315 8.26613 14.8315 8.26613C14.8316 8.26613 14.8317 8.26613 14.8318 8.26613C14.832 8.26613 14.8323 8.26613 14.8328 8.26613C14.8337 8.26613 14.8351 8.26613 14.8369 8.26614C14.8406 8.26614 14.846 8.26614 14.8532 8.26616C14.8675 8.26618 14.8885 8.26623 14.9155 8.26633C14.9694 8.26652 15.0468 8.26691 15.141 8.26769C15.3293 8.26926 15.5841 8.27238 15.8504 8.27863C16.1169 8.28488 16.3937 8.29423 16.6263 8.30817C16.8657 8.3225 17.0404 8.3409 17.1148 8.36091L17.1987 8.04895C17.0866 8.01881 16.8773 7.99959 16.6457 7.98571C16.4073 7.97143 16.1261 7.96197 15.858 7.95568C15.5895 7.94939 15.333 7.94624 15.1436 7.94467C15.0489 7.94388 14.971 7.94349 14.9166 7.94329C14.8895 7.9432 14.8682 7.94315 14.8537 7.94312C14.8465 7.94311 14.8409 7.9431 14.8372 7.9431C14.8353 7.9431 14.8339 7.9431 14.8329 7.9431C14.8325 7.9431 14.8321 7.9431 14.8318 7.9431C14.8317 7.9431 14.8316 7.9431 14.8316 7.9431C14.8315 7.9431 14.8315 7.9431 14.8315 7.9431C14.8315 7.9431 14.8315 7.9431 14.8315 8.10461ZM12.5487 8.36091C12.6232 8.3409 12.7979 8.3225 13.0371 8.30817C13.2697 8.29423 13.5464 8.28488 13.8128 8.27863C14.079 8.27238 14.3338 8.26926 14.522 8.26769C14.6161 8.26691 14.6936 8.26652 14.7475 8.26633C14.7744 8.26623 14.7954 8.26618 14.8097 8.26616C14.8169 8.26614 14.8223 8.26614 14.826 8.26614C14.8278 8.26613 14.8292 8.26613 14.8301 8.26613C14.8306 8.26613 14.8309 8.26613 14.8311 8.26613C14.8312 8.26613 14.8313 8.26613 14.8314 8.26613C14.8314 8.26613 14.8314 8.26613 14.8314 8.26613C14.8314 8.26613 14.8315 8.26613 14.8315 8.10461C14.8315 7.9431 14.8314 7.9431 14.8314 7.9431C14.8314 7.9431 14.8314 7.9431 14.8313 7.9431C14.8313 7.9431 14.8312 7.9431 14.8311 7.9431C14.8308 7.9431 14.8305 7.9431 14.83 7.9431C14.829 7.9431 14.8276 7.9431 14.8257 7.9431C14.822 7.9431 14.8164 7.94311 14.8092 7.94312C14.7947 7.94315 14.7734 7.9432 14.7463 7.94329C14.692 7.94349 14.614 7.94388 14.5194 7.94467C14.3301 7.94624 14.0736 7.94939 13.8053 7.95568C13.5372 7.96197 13.2561 7.97143 13.0178 7.98571C12.7862 7.99959 12.577 8.01881 12.4649 8.04895L12.5487 8.36091ZM12.332 8.4902C12.3933 8.42311 12.4671 8.38007 12.5435 8.36222L12.4701 8.04765C12.3257 8.08135 12.1956 8.16053 12.0935 8.27232L12.332 8.4902ZM11.3988 10.0374C11.4191 9.98665 11.4778 9.87467 11.5634 9.7233C11.647 9.57566 11.7508 9.3997 11.856 9.22629C11.9613 9.05288 12.0673 8.88296 12.1551 8.74738C12.2462 8.60662 12.3099 8.51522 12.3337 8.48829L12.0918 8.27422C12.0484 8.3233 11.9705 8.43814 11.8839 8.57181C11.794 8.71067 11.6863 8.88336 11.5799 9.0587C11.4735 9.23404 11.3679 9.41295 11.2823 9.56425C11.1988 9.71183 11.1287 9.84286 11.099 9.91718L11.3988 10.0374ZM11.4054 9.99695C11.4063 10.0094 11.4046 10.0224 11.3997 10.0352L11.0981 9.91937C11.0857 9.95158 11.0808 9.98589 11.0832 10.0196L11.4054 9.99695ZM11.3937 9.95843C11.401 9.97126 11.4046 9.9845 11.4054 9.99695L11.0832 10.0196C11.0856 10.0532 11.0952 10.0869 11.1126 10.1176L11.3937 9.95843ZM11.3586 9.92216C11.375 9.93237 11.3864 9.94554 11.3937 9.95843L11.1126 10.1176C11.13 10.1483 11.1552 10.1761 11.1878 10.1964L11.3586 9.92216ZM11.2992 9.90543C11.3215 9.90537 11.3419 9.91181 11.3586 9.92216L11.1878 10.1964C11.2207 10.2169 11.2594 10.2286 11.3001 10.2285L11.2992 9.90543ZM18.3639 9.90543H11.2996V10.2285H18.3639V9.90543ZM18.3051 9.92223C18.322 9.91169 18.3429 9.9052 18.3656 9.90544L18.3623 10.2285C18.4034 10.2289 18.4425 10.2172 18.4757 10.1965L18.3051 9.92223ZM18.2694 9.95924C18.2768 9.94608 18.2884 9.93263 18.3051 9.92223L18.4757 10.1965C18.5087 10.176 18.5341 10.1479 18.5514 10.1168L18.2694 9.95924ZM18.2578 9.9986C18.2585 9.98586 18.2621 9.97234 18.2694 9.95925L18.5514 10.1168C18.5687 10.0858 18.5782 10.0517 18.5802 10.0178L18.2578 9.9986ZM18.2642 10.0377C18.259 10.0247 18.257 10.0113 18.2578 9.99859L18.5802 10.0178C18.5823 9.98377 18.5769 9.94917 18.5638 9.91683L18.2642 10.0377ZM17.3273 8.4853C17.3522 8.51486 17.4166 8.60886 17.5072 8.74935C17.595 8.88552 17.7011 9.05566 17.8065 9.22898C17.9119 9.40232 18.016 9.57796 18.0996 9.72517C18.1854 9.87619 18.2441 9.98748 18.2642 10.0375L18.5639 9.91705C18.5342 9.84317 18.464 9.71259 18.3805 9.56559C18.2948 9.41478 18.189 9.23626 18.0825 9.06115C17.976 8.886 17.8683 8.71338 17.7787 8.57433C17.6918 8.43961 17.6154 8.32593 17.5743 8.27721L17.3273 8.4853ZM17.1198 8.36217C17.1964 8.38016 17.2703 8.42327 17.3317 8.49035L17.5699 8.27217C17.4678 8.16063 17.3379 8.08157 17.1937 8.0477L17.1198 8.36217ZM10.2791 12.9482C10.2822 12.9532 10.2826 12.9568 10.2826 12.9585L9.95958 12.9588C9.95963 13.0155 9.97524 13.0726 10.0066 13.1218L10.2791 12.9482ZM10.2546 12.93C10.2683 12.9349 10.2758 12.9431 10.2791 12.9482L10.0066 13.1218C10.0381 13.1713 10.0854 13.2122 10.1445 13.2336L10.2546 12.93ZM11.7416 13.3522C11.2274 13.2134 10.4839 13.0125 10.2543 12.9298L10.1448 13.2338C10.3907 13.3223 11.1533 13.528 11.6574 13.664L11.7416 13.3522ZM11.7506 13.3549L11.7506 13.3549L11.6484 13.6613L11.6484 13.6613L11.7506 13.3549ZM11.7436 13.3527L11.7436 13.3527L11.6554 13.6635L11.6555 13.6635L11.7436 13.3527ZM11.7409 13.352L11.7408 13.352L11.6583 13.6643L11.6584 13.6643L11.7409 13.352ZM11.742 13.3523L11.7418 13.3522L11.6576 13.6641L11.6578 13.6641L11.742 13.3523ZM12.2009 13.4778C12.1274 13.4563 11.9544 13.4096 11.742 13.3523L11.6578 13.6642C11.8727 13.7221 12.0409 13.7676 12.1104 13.7878L12.2009 13.4778ZM12.1343 13.4797C12.1573 13.4719 12.1824 13.4717 12.2056 13.4792L12.1057 13.7864C12.149 13.8005 12.1955 13.8001 12.2386 13.7854L12.1343 13.4797ZM12.0838 13.5157C12.0948 13.5012 12.1116 13.4874 12.1343 13.4797L12.2386 13.7854C12.2813 13.7709 12.3161 13.7439 12.3409 13.7113L12.0838 13.5157ZM12.0654 13.5594C12.0673 13.5453 12.0729 13.53 12.0838 13.5157L12.3409 13.7113C12.3656 13.6788 12.3802 13.6412 12.3854 13.6033L12.0654 13.5594ZM12.0702 13.6026C12.0649 13.5882 12.0635 13.5734 12.0654 13.5594L12.3854 13.6033C12.3906 13.5654 12.3865 13.5263 12.3729 13.4898L12.0702 13.6026ZM11.8879 13.127C11.961 13.3138 12.0363 13.51 12.0699 13.6018L12.3732 13.4906C12.3383 13.3953 12.262 13.1964 12.1887 13.0092L11.8879 13.127ZM11.3796 12.7696C11.64 12.8622 11.8128 12.9327 11.8877 13.1264L12.189 13.0099C12.0529 12.6578 11.7233 12.549 11.4879 12.4653L11.3796 12.7696ZM10.3604 12.4071L11.3796 12.7696L11.4879 12.4653L10.4686 12.1027L10.3604 12.4071ZM10.3413 12.4054C10.3473 12.4043 10.3535 12.4046 10.3601 12.407L10.4688 12.1028C10.4081 12.0811 10.3431 12.076 10.2795 12.0884L10.3413 12.4054ZM10.3191 12.4169C10.3274 12.4098 10.3352 12.4066 10.3413 12.4054L10.2795 12.0884C10.2162 12.1007 10.1582 12.1297 10.1098 12.1708L10.3191 12.4169ZM10.2951 12.4505C10.3018 12.4352 10.3106 12.4242 10.3191 12.4169L10.1098 12.1708C10.0616 12.2118 10.0243 12.2637 9.9992 12.321L10.2951 12.4505ZM10.2846 12.5026C10.2846 12.4837 10.2885 12.4657 10.2951 12.4505L9.9992 12.321C9.97414 12.3782 9.96151 12.4404 9.96155 12.5028L10.2846 12.5026ZM10.2826 12.9594L10.2846 12.5034L9.96156 12.502L9.95958 12.958L10.2826 12.9594ZM19.5866 13.1218C19.618 13.0726 19.6336 13.0155 19.6337 12.9588L19.3107 12.9585C19.3107 12.9568 19.311 12.9532 19.3142 12.9482L19.5866 13.1218ZM19.4488 13.2336C19.5079 13.2122 19.5551 13.1713 19.5866 13.1218L19.3142 12.9482C19.3175 12.9431 19.325 12.9349 19.3387 12.93L19.4488 13.2336ZM17.9365 13.6638C18.4404 13.5278 19.2022 13.3223 19.4484 13.2338L19.3391 12.9298C19.1091 13.0125 18.3663 13.2132 17.8523 13.352L17.9365 13.6638ZM17.4829 13.7878C17.5525 13.7675 17.7212 13.722 17.9365 13.6638L17.8523 13.352C17.6394 13.4094 17.466 13.4562 17.3923 13.4778L17.4829 13.7878ZM17.3547 13.7854C17.3978 13.8001 17.4443 13.8005 17.4876 13.7864L17.3876 13.4792C17.4108 13.4717 17.436 13.4719 17.459 13.4797L17.3547 13.7854ZM17.2524 13.7113C17.2772 13.7439 17.312 13.7709 17.3547 13.7854L17.459 13.4797C17.4816 13.4874 17.4985 13.5012 17.5095 13.5157L17.2524 13.7113ZM17.2079 13.6033C17.2131 13.6412 17.2277 13.6788 17.2524 13.7113L17.5095 13.5157C17.5204 13.53 17.5259 13.5453 17.5279 13.5594L17.2079 13.6033ZM17.2203 13.4898C17.2067 13.5263 17.2026 13.5654 17.2079 13.6033L17.5279 13.5594C17.5298 13.5734 17.5284 13.5882 17.523 13.6026L17.2203 13.4898ZM17.4037 13.0097C17.3313 13.1965 17.2549 13.3954 17.22 13.4906L17.5233 13.6018C17.557 13.5099 17.6323 13.3137 17.7049 13.1265L17.4037 13.0097ZM18.1046 12.4653C17.8698 12.549 17.5406 12.6579 17.4038 13.0096L17.7048 13.1267C17.7803 12.9327 17.9535 12.8622 18.2131 12.7696L18.1046 12.4653ZM19.1247 12.1027L18.1048 12.4652L18.213 12.7696L19.2329 12.4071L19.1247 12.1027ZM19.3137 12.0884C19.2502 12.076 19.1851 12.0811 19.1244 12.1028L19.2332 12.407C19.2398 12.4046 19.246 12.4043 19.252 12.4054L19.3137 12.0884ZM19.4835 12.1708C19.4351 12.1297 19.3771 12.1007 19.3137 12.0884L19.252 12.4054C19.2581 12.4066 19.2658 12.4098 19.2742 12.4169L19.4835 12.1708ZM19.5941 12.321C19.569 12.2637 19.5317 12.2118 19.4835 12.1708L19.2742 12.4169C19.2827 12.4242 19.2915 12.4352 19.2981 12.4505L19.5941 12.321ZM19.6317 12.5028C19.6318 12.4404 19.6191 12.3782 19.5941 12.321L19.2981 12.4505C19.3048 12.4657 19.3087 12.4837 19.3087 12.5026L19.6317 12.5028ZM19.6337 12.958L19.6317 12.502L19.3087 12.5034L19.3107 12.9594L19.6337 12.958ZM13.4253 14.9623H16.1699V14.6392H13.4253V14.9623ZM13.2594 14.8857C13.299 14.9313 13.358 14.9623 13.4253 14.9623V14.6392C13.4597 14.6392 13.4871 14.6552 13.5034 14.674L13.2594 14.8857ZM13.2018 14.7293C13.2018 14.7843 13.2205 14.8408 13.2594 14.8857L13.5034 14.674C13.5191 14.6921 13.5248 14.7123 13.5248 14.7293H13.2018ZM13.2018 14.0347V14.7293H13.5248V14.0347H13.2018ZM13.2602 13.8782C13.2213 13.9226 13.2023 13.9786 13.2018 14.0332L13.5248 14.0362C13.5246 14.0531 13.5188 14.0732 13.5031 14.0911L13.2602 13.8782ZM13.4253 13.8025C13.3585 13.8025 13.2998 13.833 13.2602 13.8782L13.5031 14.0911C13.4868 14.1098 13.4594 14.1255 13.4252 14.1255L13.4253 13.8025ZM16.1699 13.8025H13.4253V14.1255H16.1699V13.8025ZM16.2318 14.7293C16.3933 14.7235 16.3933 14.7235 16.3933 14.7235C16.3933 14.7235 16.3933 14.7234 16.3933 14.7234C16.3933 14.7234 16.3933 14.7234 16.3933 14.7233C16.3932 14.7232 16.3932 14.7231 16.3932 14.7229C16.3932 14.7225 16.3932 14.7219 16.3932 14.7212C16.3931 14.7197 16.393 14.7175 16.3929 14.7146C16.3927 14.7089 16.3924 14.7006 16.392 14.6901C16.3912 14.669 16.3899 14.6388 16.3883 14.6027C16.3852 14.5305 16.3806 14.434 16.375 14.3372C16.3693 14.241 16.3625 14.1424 16.3547 14.067C16.3509 14.03 16.3464 13.9944 16.341 13.9663C16.3385 13.9534 16.3344 13.9346 16.3276 13.9163C16.3245 13.908 16.3174 13.8899 16.3035 13.8709C16.2937 13.8575 16.2506 13.8025 16.1699 13.8025V14.1255C16.0913 14.1255 16.0503 14.072 16.0426 14.0615C16.0309 14.0454 16.0258 14.0315 16.0248 14.0289C16.0222 14.0217 16.0222 14.0194 16.0238 14.0275C16.0264 14.0412 16.0298 14.0654 16.0334 14.1002C16.0404 14.1682 16.0469 14.261 16.0525 14.3561C16.058 14.4507 16.0625 14.5455 16.0656 14.6168C16.0672 14.6524 16.0684 14.682 16.0692 14.7028C16.0696 14.7131 16.0699 14.7213 16.0701 14.7268C16.0702 14.7296 16.0703 14.7317 16.0704 14.7331C16.0704 14.7338 16.0704 14.7343 16.0704 14.7347C16.0704 14.7348 16.0704 14.735 16.0704 14.735C16.0704 14.7351 16.0704 14.7351 16.0704 14.7351C16.0704 14.7351 16.0704 14.7351 16.0704 14.7352C16.0704 14.7352 16.0704 14.7352 16.2318 14.7293ZM16.3791 14.8113C16.3887 14.7848 16.3934 14.757 16.3934 14.7293H16.0703C16.0703 14.7204 16.0718 14.7112 16.0751 14.702L16.3791 14.8113ZM16.3357 14.8857C16.3552 14.8632 16.3696 14.8378 16.3791 14.8113L16.0751 14.702C16.0784 14.6929 16.0837 14.6832 16.0917 14.674L16.3357 14.8857ZM16.2632 14.9411C16.2918 14.9274 16.3162 14.9081 16.3357 14.8857L16.0917 14.674C16.0997 14.6648 16.1104 14.6561 16.124 14.6496L16.2632 14.9411ZM16.1699 14.9623C16.2027 14.9623 16.2345 14.9548 16.2632 14.9411L16.124 14.6496C16.1377 14.643 16.1534 14.6392 16.1699 14.6392V14.9623Z" fill="#173559"/>
</svg>