<svg xmlns="http://www.w3.org/2000/svg" width="30" height="30" viewBox="0 0 30 30" fill="none">
<path d="M9.52031 5.99941C9.50686 6.16386 9.5 6.33031 9.5 6.49851C9.5 6.83978 9.52837 7.17435 9.58289 7.49998L6.22 7.50004C5.833 7.50004 5.4865 7.72684 5.31901 8.0638L5.27 8.18004L4 12L13.0942 12.0001C13.8277 12.3207 14.6379 12.4985 15.49 12.4985C16.2123 12.4985 16.9176 12.3673 17.5784 12.1183L19.2293 13.7692C19.4578 13.9976 19.7199 14.1726 19.9999 14.2941L20 20.5C20 21.33 19.32 22 18.5 22C17.7188 22 17.0794 21.3977 17.0069 20.6432L17 20.5V20H5V20.5C5 21.33 4.33 22 3.5 22C2.71882 22 2.07938 21.4065 2.00685 20.6447L2 20.5V13.34C2 13.1675 2.0225 13.0007 2.06328 12.8394L2.11 12.68L4.08 7.01004C4.275 6.46218 4.76316 6.0609 5.36034 6.00637L5.5 6.00004L9.52031 5.99941ZM5.5 14C4.67 14 4 14.67 4 15.5C4 16.33 4.67 17 5.5 17C6.33 17 7 16.33 7 15.5C7 14.67 6.33 14 5.5 14ZM16.5 14C15.67 14 15 14.67 15 15.5C15 16.33 15.67 17 16.5 17C17.33 17 18 16.33 18 15.5C18 14.67 17.33 14 16.5 14ZM17.9376 7.05771L19.693 12.1123L17.88 10.2985C17.7593 10.3755 17.6347 10.4469 17.5064 10.5124L16.8678 8.59299C17.4004 8.24423 17.7918 7.69768 17.9376 7.05771ZM13 6.50004C13 6.85591 13.0744 7.19442 13.2084 7.50087L11.1113 7.50008C11.0384 7.1781 11 6.8429 11 6.49851C11 6.32956 11.0093 6.16282 11.0274 5.99878L13.0501 5.99939C13.0173 6.16115 13 6.32858 13 6.50004Z" fill="#173559"/>
<path d="M11 6.49847C11 3.83847 13.3 1.72847 16.02 2.02847C18.15 2.25847 19.86 4.07847 19.99 6.22847C20.05 7.21847 19.78 8.11847 19.3 8.88847L21.71 11.2885C22.1 11.6785 22.1 12.3185 21.71 12.7085C21.32 13.0985 20.68 13.0985 20.29 12.7085L17.88 10.2985C17.19 10.7385 16.37 10.9985 15.49 10.9985C13.01 10.9985 11 8.98847 11 6.49847ZM15.5 3.99847C14.12 3.99847 13 5.11847 13 6.49847C13 7.87847 14.12 8.99847 15.5 8.99847C16.88 8.99847 18 7.87847 18 6.49847C18 5.11847 16.88 3.99847 15.5 3.99847Z" fill="#173559"/>
</svg>