<svg xmlns="http://www.w3.org/2000/svg" width="24" height="24" viewBox="0 0 24 24" fill="none">
<g clip-path="url(#clip0_4527_19974)">
<path d="M18 13C16.09 13 14.37 12.24 13.11 11H4.81L5.85 8H11.29C11.1 7.37 11 6.7 11 6C11 5.3 11.1 4.63 11.29 4H9C8.45 4 8 4.45 8 5V6H5.5C4.84 6 4.29 6.42 4.08 7.01L2 13V20.5C2 21.32 2.67 22 3.5 22C4.33 22 5 21.32 5 20.5V20H17V20.5C17 21.32 17.67 22 18.5 22C19.33 22 20 21.32 20 20.5V13L19.91 12.73C19.3 12.9 18.66 13 18 13ZM6.5 17C5.67 17 5 16.33 5 15.5C5 14.67 5.67 14 6.5 14C7.33 14 8 14.67 8 15.5C8 16.33 7.33 17 6.5 17ZM15.5 17C14.67 17 14 16.33 14 15.5C14 14.67 14.67 14 15.5 14C16.33 14 17 14.67 17 15.5C17 16.33 16.33 17 15.5 17Z" fill="#173559"/>
<path d="M17.9875 9.5C18.1042 9.5 18.2063 9.45633 18.294 9.369C18.3813 9.28133 18.425 9.17917 18.425 9.0625V8.875C18.8417 8.8 19.2 8.6375 19.5 8.3875C19.8 8.1375 19.95 7.76667 19.95 7.275C19.95 6.925 19.85 6.60417 19.65 6.3125C19.45 6.02083 19.05 5.76667 18.45 5.55C17.95 5.38333 17.6042 5.2375 17.4125 5.1125C17.2208 4.9875 17.125 4.81667 17.125 4.6C17.125 4.38333 17.2022 4.2125 17.3565 4.0875C17.5105 3.9625 17.7333 3.9 18.025 3.9C18.1917 3.9 18.3375 3.92917 18.4625 3.9875C18.5875 4.04583 18.6917 4.125 18.775 4.225C18.8583 4.325 18.9522 4.39383 19.0565 4.4315C19.1605 4.46883 19.2583 4.46667 19.35 4.425C19.475 4.375 19.5605 4.2895 19.6065 4.1685C19.6522 4.04783 19.6417 3.9375 19.575 3.8375C19.4417 3.64583 19.2772 3.48333 19.0815 3.35C18.8855 3.21667 18.675 3.14167 18.45 3.125V2.9375C18.45 2.82083 18.4062 2.71867 18.3185 2.631C18.2312 2.54367 18.1292 2.5 18.0125 2.5C17.8958 2.5 17.7938 2.54367 17.7065 2.631C17.6188 2.71867 17.575 2.82083 17.575 2.9375V3.125C17.1583 3.21667 16.8333 3.4 16.6 3.675C16.3667 3.95 16.25 4.25833 16.25 4.6C16.25 4.99167 16.3647 5.30833 16.594 5.55C16.823 5.79167 17.1833 6 17.675 6.175C18.2 6.36667 18.5647 6.5375 18.769 6.6875C18.973 6.8375 19.075 7.03333 19.075 7.275C19.075 7.55 18.977 7.752 18.781 7.881C18.5853 8.01033 18.35 8.075 18.075 8.075C17.8583 8.075 17.6625 8.02283 17.4875 7.9185C17.3125 7.8145 17.1667 7.65833 17.05 7.45C16.9833 7.33333 16.8958 7.25417 16.7875 7.2125C16.6792 7.17083 16.5708 7.17083 16.4625 7.2125C16.3458 7.25417 16.2605 7.33333 16.2065 7.45C16.1522 7.56667 16.15 7.67917 16.2 7.7875C16.3333 8.07083 16.5125 8.302 16.7375 8.481C16.9625 8.66033 17.2333 8.78333 17.55 8.85V9.0625C17.55 9.17917 17.5938 9.28133 17.6815 9.369C17.7688 9.45633 17.8708 9.5 17.9875 9.5ZM18 11C17.3083 11 16.6583 10.8687 16.05 10.606C15.4417 10.3437 14.9125 9.9875 14.4625 9.5375C14.0125 9.0875 13.6563 8.55833 13.394 7.95C13.1313 7.34167 13 6.69167 13 6C13 5.30833 13.1313 4.65833 13.394 4.05C13.6563 3.44167 14.0125 2.9125 14.4625 2.4625C14.9125 2.0125 15.4417 1.65617 16.05 1.3935C16.6583 1.13117 17.3083 1 18 1C18.6917 1 19.3417 1.13117 19.95 1.3935C20.5583 1.65617 21.0875 2.0125 21.5375 2.4625C21.9875 2.9125 22.3437 3.44167 22.606 4.05C22.8687 4.65833 23 5.30833 23 6C23 6.69167 22.8687 7.34167 22.606 7.95C22.3437 8.55833 21.9875 9.0875 21.5375 9.5375C21.0875 9.9875 20.5583 10.3437 19.95 10.606C19.3417 10.8687 18.6917 11 18 11Z" fill="#173559"/>
</g>
<defs>
<clipPath id="clip0_4527_19974">
<rect width="24" height="24" fill="white"/>
</clipPath>
</defs>
</svg>