<svg xmlns="http://www.w3.org/2000/svg" width="71" height="71" fill="none" viewBox="0 0 71 71"><path fill="#24247b" fill-rule="evenodd" d="M35.167.542c19.33 0 35 15.67 35 35s-15.67 35-35 35-35-15.67-35-35 15.67-35 35-35Zm-6.1 50.021v-.367l-4.934-1.358-4.789 4.788a23.745 23.745 0 0 0 9.58 5.111l.019.01a23.967 23.967 0 0 0 18.235-2.395c5.318-3.074 9.467-8.166 11.183-14.568l.01-.028a23.95 23.95 0 0 0-2.396-18.226v-.01a24.5 24.5 0 0 0-2.725-3.8l-4.842 4.842c-.087.129-.199.24-.327.328l-3.183 3.182V46.17h2.49a1.24 1.24 0 0 1 1.235 1.236v2.998a1.24 1.24 0 0 1-1.235 1.235H43.37a3.345 3.345 0 0 1-1.858.566H33.3c-.584 0-1.093-.462-1.527-1.273l-.424-.113v3.262l.001.173c.006.409.008.522-.435.864-.82.632-2.537 1.019-2.537-3.884 0-.35.293-.755.689-.67Zm19.277-30.462 2.643-2.644a23.745 23.745 0 0 0-9.58-5.11l-.028-.01a23.949 23.949 0 0 0-18.226 2.395h-.01A23.922 23.922 0 0 0 11.972 29.3l-.01.019a23.967 23.967 0 0 0 2.395 18.235 23.545 23.545 0 0 0 2.725 3.81l4.715-4.715a11.086 11.086 0 0 1-.735-1.998c-.66-2.414-.98-5.723-.971-9.014.01-3.29.349-6.6 1.009-9.005.603-2.225 1.556-3.79 2.895-4.158l5.073-1.386v-.566c-.396.085-.689-.32-.689-.67 0-4.988 1.773-4.507 2.575-3.847.414.335.41.468.4.855-.002.07-.005.15-.005.24v3.365l.566-.16c.406-.783.877-1.226 1.386-1.226h8.213c.679 0 1.32.208 1.858.566h4.017c.384 0 .729.178.956.456ZM23.52 44.925a15.223 15.223 0 0 1-.271-.877c-.604-2.207-.896-5.3-.886-8.411.009-3.102.32-6.195.924-8.41.396-1.453.848-2.434 1.3-2.556l6.422-1.764c-.956 3.866-1.384 10.056-1.224 15.753l-6.265 6.265Zm2.457 2.068 4.052-4.052c.182 2.034.454 3.884.82 5.388l-4.872-1.336Zm7.399-22.728a2.453 2.453 0 0 1 4.903 0 2.459 2.459 0 0 1-2.452 2.452 2.453 2.453 0 0 1-2.451-2.452Zm0 22.753a2.453 2.453 0 0 1 4.903 0 2.459 2.459 0 0 1-2.452 2.451 2.453 2.453 0 0 1-2.451-2.451Zm8.833-37.773-.217-.057c-7.185-1.867-14.464-.67-20.442 2.782-6.034 3.489-10.739 9.268-12.681 16.529l-.057.216c-1.867 7.185-.67 14.464 2.782 20.442v-.01c3.488 6.045 9.268 10.75 16.528 12.692l.217.057c7.185 1.867 14.464.67 20.442-2.782h-.01c6.044-3.488 10.75-9.268 12.692-16.529l.056-.217c1.867-7.184.67-14.463-2.781-20.441-3.489-6.035-9.269-10.74-16.529-12.682Z" clip-rule="evenodd"/></svg>