<svg xmlns="http://www.w3.org/2000/svg" width="71" height="71" fill="none" viewBox="0 0 71 71"><path fill="#24247b" fill-rule="evenodd" d="M35.5.542c19.327 0 35 15.673 35 35 0 19.327-15.673 35-35 35-19.327 0-35-15.673-35-35 0-19.327 15.673-35 35-35Zm-15.038 31.31h.376l1.396-5.075c.255-.959 1.117-1.724 2.38-2.306.048.437.121.862.206 1.287.073.327.17.655.28.983-.377.206-.62.413-.68.631l-1.712 6.265c3.37-.82 8.493-1.167 13.512-1.081l3.695-3.694c.477-1.471.17-3.146-1.473-4.5.11 1.796-2.003 2.585-3.387.813-1.056-1.36-1.372-4.225.619-7.928-1.493.57-4.298 4.844-4.698 7.746-.304 2.173.17 4.674 1.93 6.046-7.637-2.052-7.382-10.308-3.327-14.897 3.278-3.74 5.476-6.386 5.1-9.227 3.362 1.506 5.523 6.095 4.2 9.64-.692 1.833-.158 3.375 1.627 3.363 1.675-.012 2.149-1.372 1.845-2.744 1.578 2.926 2.107 5.416 1.75 7.504l7.227-7.224a23.826 23.826 0 0 0-8.778-4.88c-.789-1.555-1.493-2.78-2.343-3.85.704.134 1.42.28 2.125.462l.206.06c7.26 1.943 13.05 6.654 16.535 12.687a27.179 27.179 0 0 1 2.78 20.444l-.06.207c-1.943 7.26-6.654 13.05-12.687 16.534a27.178 27.178 0 0 1-20.444 2.78l-.206-.06c-7.26-1.943-13.051-6.653-16.535-12.687a27.179 27.179 0 0 1-2.78-20.444l.06-.206c1.943-7.26 6.653-13.05 12.687-16.535a27.395 27.395 0 0 1 10.416-3.472 6.63 6.63 0 0 1-.692 1.542c-.4.643-.91 1.335-1.53 2.088a24.03 24.03 0 0 0-6.592 2.61h-.012a23.928 23.928 0 0 0-11.181 14.568l-.012.025a23.96 23.96 0 0 0 2.404 18.222v.012a23.817 23.817 0 0 0 2.719 3.8l1.985-1.985v-3.21a3.388 3.388 0 0 1-.558-1.87v-8.207c0-.583.45-1.093 1.263-1.53l.121-.425h-3.266l-.183.002c-.4.008-.507.01-.849-.439-.643-.813-1.02-2.525 3.873-2.525.352 0 .765.291.668.68Zm1.426 19.558-2.222 2.221a23.989 23.989 0 0 0 9.59 5.111l.025.012a23.96 23.96 0 0 0 18.222-2.404h.013a23.928 23.928 0 0 0 11.18-14.568l.013-.024a23.96 23.96 0 0 0-2.404-18.222v-.012a23.816 23.816 0 0 0-2.72-3.8l-5.81 5.808c.389.37.656.786.78 1.245l1.396 5.075h.57c-.096-.389.316-.68.668-.68 4.978 0 4.505 1.773 3.849 2.574-.337.409-.477.405-.853.393a7.405 7.405 0 0 0-.24-.005H50.57l.158.571c.79.4 1.226.874 1.226 1.384v8.207c0 .692-.206 1.336-.558 1.87v4.006c0 .68-.559 1.238-1.239 1.238H47.16c-.68 0-1.239-.558-1.239-1.238v-2.489H25.616l-.76.76v1.729c0 .68-.558 1.238-1.238 1.238h-1.73Zm18.675-18.669c2.887.202 5.54.556 7.555 1.053l-1.748-6.422a.708.708 0 0 0-.173-.262l-5.634 5.631Zm6.207 3.42a2.453 2.453 0 0 1 0 4.906 2.453 2.453 0 0 1-2.452-2.453 2.461 2.461 0 0 1 2.452-2.452Zm-22.751 0a2.461 2.461 0 0 1 2.452 2.453 2.453 2.453 0 0 1-4.904 0 2.453 2.453 0 0 1 2.452-2.452Z" clip-rule="evenodd"/></svg>