<svg xmlns="http://www.w3.org/2000/svg" width="71" height="71" fill="none" viewBox="0 0 71 71"><path fill="#24247b" fill-rule="evenodd" d="M35.841.542c19.324 0 34.993 15.67 34.993 35.007 0 19.324-15.67 34.993-34.993 34.993-19.338 0-35.007-15.67-35.007-34.993C.834 16.211 16.504.542 35.841.542Zm-5.29 17.452c-.028.238-.05.476-.073.711-.1 1.047-.198 2.057-.67 2.869a1.152 1.152 0 0 1-1.56.415 1.143 1.143 0 0 1-.416-1.56c.486-.842 1.59-1.63 2.6-2.35l.118-.085Zm25.62 30.343-.06-.044c-.92-.668-1.856-1.5-2.079-1.752a5.585 5.585 0 0 0-.505-.52c-.802-.683-1.827-1.01-2.852-1.01-1.024 0-2.05.341-2.851 1.025v-.015a4.289 4.289 0 0 0-.52.52c-.223.252-.46.505-.713.727-1.277 1.1-2.926 1.65-4.575 1.65-1.648 0-3.297-.55-4.574-1.635a5.859 5.859 0 0 1-.743-.742 4.646 4.646 0 0 0-3.46-1.545c-1.07 0-2.124.356-2.956 1.07a4.648 4.648 0 0 0-.46.475c-.223.252-.46.49-.713.713-1.244 1.072-2.817 1.62-4.39 1.66l-4.71 4.711a23.987 23.987 0 0 0 15.832 5.941c6.624 0 12.64-2.688 16.977-7.04a23.988 23.988 0 0 0 3.353-4.19Zm1.187-2.11c-.733-.54-1.36-1.079-1.484-1.231a6.809 6.809 0 0 0-.802-.802 6.846 6.846 0 0 0-3.03-1.456l.282-1.604c.09-.505-.267-1.04-.965-1.589l-.06-.58 1.665.29c.553.097 1.106.194 1.662.29.09.017.169.034.238.049.365.08.494.107.906-.242.787-.668 1.56-2.332-3.342-3.208-.356-.06-.802.163-.787.564l-.55-.104-.49-5.243c-.133-1.366-1.515-2.584-3.594-3.564a19.37 19.37 0 0 0-.81-.36l7.72-7.72A23.988 23.988 0 0 1 59.86 35.55c0 3.832-.9 7.46-2.5 10.678Zm-14.52-19.946 8.822-8.822a23.978 23.978 0 0 0-15.818-5.94 23.915 23.915 0 0 0-16.991 7.04 23.916 23.916 0 0 0-7.04 16.99c0 2.671.437 5.243 1.245 7.648a9.895 9.895 0 0 1 3.325-.266c.668.06 1.322.179 1.93.372l1.397-7.917c.09-.579.639-1.01 1.5-1.292l.193-.4c-1.07-.194-2.139-.387-3.208-.565-.071-.014-.135-.024-.193-.034-.387-.065-.5-.084-.758-.575-.475-.921-.549-2.674 4.263-1.827.357.074.698.43.55.787l.356.074 2.258-4.752c.594-1.278 2.302-1.96 4.604-2.169 2.48-.238 5.793.03 9.03.61 1.558.277 3.102.629 4.535 1.038ZM13.942 45.45a24.134 24.134 0 0 0 3.81 5.917l3.323-3.323a6.726 6.726 0 0 1-1.13-.777 5.615 5.615 0 0 1-.727-.727c-.61-.698-1.768-1.114-3.045-1.218a7.705 7.705 0 0 0-2.23.127Zm20.754-11.028c-4.02-.646-7.931-.974-10.755-.79l2.777-5.866c.223-.445 1.263-.728 2.763-.876 2.272-.208 5.377.044 8.436.594 1.041.187 2.073.406 3.064.653l-6.285 6.285Zm3.813.702 5.94-5.939c.573.211 1.107.432 1.593.66 1.366.654 2.242 1.263 2.287 1.723l.624 6.64c-2.604-1.154-6.42-2.249-10.444-3.084Zm7.087 9.737c.208-.237.43-.46.683-.668a6.686 6.686 0 0 1 2.956-1.426c.015-1.188-.817-2.258-2.035-2.465a2.453 2.453 0 0 0-2.837 1.99 2.467 2.467 0 0 0 1.233 2.57Zm-20.794-8.51a2.445 2.445 0 0 1 1.976 2.837 2.437 2.437 0 0 1-2.837 1.99 2.456 2.456 0 0 1-1.99-2.837 2.46 2.46 0 0 1 2.851-1.99ZM43.83 18.705c-.1 1.047-.197 2.057-.67 2.869a1.153 1.153 0 0 1-1.56.415 1.156 1.156 0 0 1-.415-1.56c.468-.811 1.523-1.572 2.49-2.27l.003-.002.225-.163c-.027.238-.05.475-.073.711Zm-6.596-2.998c-.026.225-.048.45-.07.673-.105 1.06-.206 2.084-.673 2.906a1.146 1.146 0 0 1-1.56.416 1.144 1.144 0 0 1-.43-1.56c.475-.8 1.494-1.537 2.459-2.236l.274-.2Zm17.857.579C50.16 11.355 43.357 8.31 35.842 8.31a27.14 27.14 0 0 0-19.264 7.976A27.14 27.14 0 0 0 8.603 35.55c0 7.515 3.044 14.318 7.975 19.249a27.14 27.14 0 0 0 19.264 7.975c7.515 0 14.318-3.044 19.249-7.975 4.931-4.931 7.976-11.734 7.976-19.25a27.14 27.14 0 0 0-7.976-19.263Z" clip-rule="evenodd"/></svg>