<?xml version="1.0" standalone="no"?>
<!DOCTYPE svg PUBLIC "-//W3C//DTD SVG 20010904//EN"
 "http://www.w3.org/TR/2001/REC-SVG-20010904/DTD/svg10.dtd">
<svg version="1.0" xmlns="http://www.w3.org/2000/svg"
 width="50.000000pt" height="50.000000pt" viewBox="0 0 50.000000 50.000000"
 preserveAspectRatio="xMidYMid meet">

<g transform="translate(0.000000,50.000000) scale(0.100000,-0.100000)"
fill="#000000" stroke="none">
<path d="M160 459 c-92 -42 -134 -107 -134 -209 0 -102 42 -167 134 -209 146
-67 320 47 320 209 0 162 -174 276 -320 209z m168 -15 c110 -45 162 -174 113
-279 -63 -137 -234 -167 -338 -59 -82 84 -84 196 -5 283 58 66 151 88 230 55z"/>
<path d="M208 411 c-34 -40 -35 -49 -3 -57 34 -8 37 -4 33 47 l-3 43 -27 -33z"/>
<path d="M260 397 c0 -47 1 -48 27 -45 38 4 39 21 4 60 l-30 33 -1 -48z"/>
<path d="M153 410 c-37 -22 -42 -35 -14 -43 14 -3 23 4 35 29 8 19 15 34 13
34 -1 0 -17 -9 -34 -20z"/>
<path d="M327 401 c10 -17 26 -31 36 -31 27 0 16 22 -21 43 l-32 19 17 -31z"/>
<path d="M76 321 c-22 -57 -21 -61 23 -61 37 0 39 1 45 41 8 48 9 45 -25 54
-24 6 -28 2 -43 -34z"/>
<path d="M366 353 c-14 -4 -17 -11 -12 -35 3 -17 6 -37 6 -44 0 -10 13 -14 40
-14 45 0 46 4 24 60 -16 39 -21 42 -58 33z"/>
<path d="M166 309 c-9 -48 -9 -49 34 -49 39 0 40 1 40 35 0 28 -4 35 -19 35
-11 0 -26 2 -34 6 -10 3 -16 -4 -21 -27z"/>
<path d="M288 333 c-24 -4 -28 -9 -28 -39 0 -33 1 -34 40 -34 31 0 40 4 40 18
0 26 -11 62 -19 61 -3 -1 -18 -4 -33 -6z"/>
<path d="M60 230 c0 -5 7 -28 16 -51 15 -36 19 -40 43 -34 34 9 33 6 25 54 -6
40 -8 41 -45 41 -22 0 -39 -4 -39 -10z"/>
<path d="M165 203 c4 -21 8 -39 8 -39 1 -1 17 1 35 3 29 5 32 9 32 39 0 33 -1
34 -41 34 l-41 0 7 -37z"/>
<path d="M260 206 c0 -30 3 -34 33 -39 17 -2 33 -3 35 -2 2 1 6 19 9 39 l6 36
-42 0 c-40 0 -41 -1 -41 -34z"/>
<path d="M356 199 c-8 -48 -9 -45 25 -54 24 -6 28 -2 43 34 22 57 21 61 -23
61 -37 0 -39 -1 -45 -41z"/>
<path d="M191 141 c-15 -10 -5 -36 28 -65 l21 -19 0 46 c0 49 -14 60 -49 38z"/>
<path d="M260 103 l1 -48 30 33 c35 39 34 56 -4 60 -26 3 -27 2 -27 -45z"/>
<path d="M137 132 c-25 -5 -16 -23 22 -46 l33 -19 -17 34 c-21 40 -16 36 -38
31z"/>
<path d="M327 99 l-17 -31 32 19 c37 21 48 43 21 43 -10 0 -26 -14 -36 -31z"/>
</g>
</svg>
