<svg xmlns="http://www.w3.org/2000/svg" width="20" height="21" fill="none" viewBox="0 0 20 21"><path fill="#212121" d="M5.712 13.212 3.7 11.2a2.072 2.072 0 0 0-1.473-.61H.833a.417.417 0 0 0 0 .834h1.394c.328 0 .65.133.883.366l1.3 1.3H.834a.417.417 0 0 0 0 .834h4.584a.417.417 0 0 0 .295-.712ZM5.417 15.174A.417.417 0 0 0 5 15.59v1.25c0 .23-.188.417-.417.417h-2.5a.417.417 0 0 1-.416-.417v-1.666a.417.417 0 0 0-.834 0v1.666c0 .69.561 1.25 1.25 1.25h2.5c.69 0 1.25-.56 1.25-1.25v-1.25a.417.417 0 0 0-.416-.416Z"/><path fill="#212121" d="M18.11 8.138c-1.15-.6-3.727-.88-8.11-.88-4.383 0-6.96.28-8.11.88C.584 8.82 0 9.963 0 11.84c0 1.805.413 3.375.43 3.441.05.183.214.31.403.31h3.652l1.578.789c.059.029.123.044.187.044h7.5a.411.411 0 0 0 .186-.044l1.579-.79h3.652c.189 0 .354-.126.402-.309.018-.066.431-1.636.431-3.44 0-1.878-.582-3.02-1.89-3.703Zm.727 6.619h-3.42a.413.413 0 0 0-.186.044l-1.58.79H6.349L4.77 14.8a.418.418 0 0 0-.187-.044h-3.42c-.115-.53-.33-1.678-.33-2.917 0-1.569.419-2.428 1.443-2.964.998-.521 3.596-.786 7.724-.786 4.127 0 6.726.265 7.724.786 1.024.536 1.443 1.395 1.443 2.964a14.4 14.4 0 0 1-.33 2.917Z"/><path fill="#212121" d="M19.167 13.09h-3.578l1.3-1.3a1.26 1.26 0 0 1 .884-.366h1.394a.417.417 0 0 0 0-.834h-1.394c-.556 0-1.079.217-1.473.61l-2.011 2.012a.419.419 0 0 0 .295.712h4.583a.417.417 0 0 0 0-.834ZM14.96 10.83a.417.417 0 0 0-.377-.24H5.417a.417.417 0 0 0-.32.684l2.083 2.5c.08.095.197.15.32.15h5c.123 0 .24-.055.32-.15l2.083-2.5a.416.416 0 0 0 .058-.444Zm-2.656 2.26h-4.61l-1.388-1.666h7.387l-1.389 1.666ZM18.3 8.341c-.475-1.09-2.061-4.682-2.613-5.152-.688-.584-2.657-.932-5.27-.932h-.833c-2.614 0-4.583.348-5.27.932-.552.469-2.14 4.061-2.613 5.151a.418.418 0 0 0 .765.333c.94-2.166 2.092-4.573 2.388-4.849.32-.272 1.678-.734 4.73-.734h.833c3.052 0 4.41.462 4.728.733.298.277 1.449 2.683 2.39 4.85a.417.417 0 0 0 .764-.332ZM18.75 14.757a.417.417 0 0 0-.416.417v1.666c0 .23-.188.417-.417.417h-2.5A.417.417 0 0 1 15 16.84v-1.25a.417.417 0 0 0-.833 0v1.25c0 .69.56 1.25 1.25 1.25h2.5c.689 0 1.25-.56 1.25-1.25v-1.666a.417.417 0 0 0-.417-.417Z"/></svg>