<svg xmlns="http://www.w3.org/2000/svg" width="20" height="21" fill="none" viewBox="0 0 20 21"><g clip-path="url(#clip0_3435_38491)"><path fill="#212121" d="M7.855.542h3.765a1.48 1.48 0 0 1 1.362.911c.072.175.112.365.112.564v1.647a1.442 1.442 0 0 1-.275.854c.311.047.606.142.88.277.307.151.585.351.824.59.557.557.902 1.326.902 2.17v6.543c.12-.04.24-.07.36-.084.141-.018.283-.017.421.006a1.376 1.376 0 0 1 .926.583c.236.33.388.812.396 1.463.006.568-.096 1.265-.347 2.103l-.34 1.136a6.182 6.182 0 0 0-.104.387c-.031.126-.054.223-.088.306a.62.62 0 0 1-.153.227c-.185.17-.373.17-.802.17h-.088c-3.028.365-8.488-.045-11.82.002-.395.003-.583.005-.767-.156l-.01-.008c-.157-.142-.19-.301-.252-.596-.011-.052-.022-.11-.037-.176a12.315 12.315 0 0 0-.055-.234l-.284-1.122c-.029-.118-.053-.208-.078-.297l-.003-.015c-.133-.506-.28-1.06-.303-1.608-.022-.553.083-1.1.456-1.579.09-.114.189-.211.298-.293a1.324 1.324 0 0 1 .724-.259c.126-.006.254.005.384.034l.077.02.008.002V7.554a3.06 3.06 0 0 1 .902-2.17 3.086 3.086 0 0 1 1.798-.88 1.49 1.49 0 0 1-.267-.842V2.017A1.48 1.48 0 0 1 6.81.975l.003-.003A1.45 1.45 0 0 1 7.29.654c.177-.071.368-.112.566-.112Zm4.333 7.651a.358.358 0 0 1 .23-.156.36.36 0 0 1 .273.05l.005.004a.368.368 0 0 1 .104.501l-.003.003a9.517 9.517 0 0 0-1.155 2.451 9.842 9.842 0 0 0-.317 1.431 11.485 11.485 0 0 0-.115 1.59c0 .101-.041.192-.108.258a.364.364 0 0 1-.517 0l-.004-.004a.367.367 0 0 1-.104-.255c.002-.596.044-1.162.124-1.7a10.56 10.56 0 0 1 .34-1.533c.148-.486.327-.949.535-1.386.212-.438.45-.855.712-1.254Zm-5.49.406-.007-.01a.36.36 0 0 1-.048-.269.36.36 0 0 1 .15-.228l.01-.006a.36.36 0 0 1 .27-.049.37.37 0 0 1 .23.156 10.084 10.084 0 0 1 1.585 4.173c.079.538.121 1.102.123 1.7 0 .1-.041.192-.108.257a.36.36 0 0 1-.514 0 .364.364 0 0 1-.107-.259 11.245 11.245 0 0 0-.114-1.59 9.829 9.829 0 0 0-.318-1.43 9.296 9.296 0 0 0-1.152-2.445Zm7.995 5.93V7.555a2.324 2.324 0 0 0-.687-1.652 2.326 2.326 0 0 0-1.652-.687H7.018a2.325 2.325 0 0 0-1.652.687 2.325 2.325 0 0 0-.687 1.652v6.954c.214.181.425.417.624.715.182.272.353.596.51.972a7.948 7.948 0 0 1 1.795-.653 8.432 8.432 0 0 1 1.963-.215c.67.003 1.359.083 2.063.233.687.146 1.39.36 2.108.64.073-.339.192-.647.343-.915.168-.301.378-.555.608-.755Zm-10.508.52a.384.384 0 0 1-.156-.112 1.203 1.203 0 0 0-.328-.142.73.73 0 0 0-.183-.018.587.587 0 0 0-.337.122.815.815 0 0 0-.15.15c-.259.334-.322.753-.293 1.196.03.45.156.925.27 1.357l.005.022.078.298.283 1.121c.041.164.074.316.1.44l.001.004.033.18c0 .004 0 .006-.002.01a.044.044 0 0 1 .018-.004c.049-.003.132-.01.26-.011l.232-.004h11.577l.013.002h.086c.14 0 .23.005.282.008.008 0 .014.002.02.005v-.007c.007-.03.015-.081.033-.151l.002-.003c.028-.116.063-.26.112-.422l.34-1.136c.218-.727.316-1.32.323-1.792.008-.529-.095-.903-.266-1.142a.738.738 0 0 0-.198-.192.621.621 0 0 0-.244-.093.805.805 0 0 0-.292.01 1.204 1.204 0 0 0-.314.113c-.281.145-.548.4-.748.746a2.62 2.62 0 0 0-.34 1.133v.01l-.009.048v.002a.368.368 0 0 1-.216.25.359.359 0 0 1-.279-.001 13.724 13.724 0 0 0-2.23-.736 9.652 9.652 0 0 0-2.097-.257 7.385 7.385 0 0 0-3.77.973l-.03.015a.24.24 0 0 1-.03.013l-.003.002a.365.365 0 0 1-.461-.227 5.537 5.537 0 0 0-.496-1.077 2.865 2.865 0 0 0-.596-.703Zm11.818 4.629.002.001-.002-.001ZM11.62 1.274H7.855a.737.737 0 0 0-.524.218l-.003.004a.74.74 0 0 0-.216.522v1.647a.74.74 0 0 0 .217.524l.004.004a.736.736 0 0 0 .52.215h3.765a.74.74 0 0 0 .524-.219l.003-.003a.739.739 0 0 0 .215-.52v-1.65a.722.722 0 0 0-.22-.523.755.755 0 0 0-.52-.219Z"/></g><defs><clipPath id="clip0_3435_38491"><path fill="#fff" d="M2 .542h15.531v20H2z"/></clipPath></defs></svg>