<svg xmlns="http://www.w3.org/2000/svg" width="20" height="21" fill="none" viewBox="0 0 20 21"><mask id="path-1-inside-1_3435_38504" fill="#fff"><path fill-rule="evenodd" d="M4.044.174a1 1 0 0 0-1 1v3.652a1 1 0 0 0 1 1h.608a1 1 0 0 0 1-1v-.74h2.842c.153.264.373.484.637.637v2.205c-.52.301-.87.863-.87 1.507v.87c0 .643.35 1.205.87 1.505v5.248a1.748 1.748 0 0 0-.637.637H5.652v-1.174a1 1 0 0 0-1-1h-.608a1 1 0 0 0-1 1v3.652a1 1 0 0 0 1 1h.608a1 1 0 0 0 1-1v-.739h2.842a1.738 1.738 0 0 0 3.013 0h2.84v.74a1 1 0 0 0 1 1h.609a1 1 0 0 0 1-1v-3.652a1 1 0 0 0-1-1h-.609a1 1 0 0 0-1 1v1.173h-2.84a1.748 1.748 0 0 0-.637-.637v-5.247c.52-.3.87-.863.87-1.507v-.87c0-.643-.35-1.205-.87-1.506V4.723c.264-.152.484-.373.637-.637h2.84v.74a1 1 0 0 0 1 1h.609a1 1 0 0 0 1-1V1.174a1 1 0 0 0-1-1h-.609a1 1 0 0 0-1 1v1.173h-2.84a1.739 1.739 0 0 0-3.013 0H5.652V1.174a1 1 0 0 0-1-1h-.608Z" clip-rule="evenodd"/></mask><path fill="#212121" d="M5.652 4.086v-.7h-.7v.7h.7Zm2.842 0 .606-.35-.202-.35h-.404v.7Zm.637.637h.7v-.404l-.35-.202-.35.606Zm0 2.205.35.606.35-.202v-.404h-.7Zm0 3.882h.7v-.403l-.35-.202-.35.605Zm0 5.248.35.606.35-.202v-.404h-.7Zm-.637.637v.7h.404l.202-.35-.606-.35Zm-2.842 0h-.7v.7h.7v-.7Zm0 1.74v-.7h-.7v.7h.7Zm2.842 0 .606-.351-.202-.35h-.404v.7Zm3.013 0v-.7h-.404l-.202.349.606.35Zm2.84 0h.7v-.7h-.7v.7Zm0-1.74v.7h.7v-.7h-.7Zm-2.84 0-.606.35.202.35h.404v-.7Zm-.637-.637h-.7v.404l.35.202.35-.606Zm0-5.247-.35-.606-.35.202v.404h.7Zm0-3.883h-.7v.404l.35.202.35-.606Zm0-2.205-.35-.606-.35.202v.404h.7Zm.637-.637v-.7h-.404l-.202.35.606.35Zm2.84 0h.7v-.7h-.7v.7Zm0-1.739v.7h.7v-.7h-.7Zm-2.84 0-.606.35.202.35h.404v-.7Zm-3.013 0v.7h.404l.202-.35-.606-.35Zm-2.842 0h-.7v.7h.7v-.7ZM3.744 1.174a.3.3 0 0 1 .3-.3v-1.4a1.7 1.7 0 0 0-1.7 1.7h1.4Zm0 3.652V1.174h-1.4v3.652h1.4Zm.3.3a.3.3 0 0 1-.3-.3h-1.4a1.7 1.7 0 0 0 1.7 1.7v-1.4Zm.608 0h-.608v1.4h.608v-1.4Zm.3-.3a.3.3 0 0 1-.3.3v1.4a1.7 1.7 0 0 0 1.7-1.7h-1.4Zm0-.74v.74h1.4v-.74h-1.4Zm3.542-.7H5.652v1.4h2.842v-1.4Zm.987.731a1.048 1.048 0 0 1-.38-.381l-1.213.701c.214.37.522.678.892.892l.701-1.212Zm.35 2.811V4.723h-1.4v2.205h1.4Zm-.87 1.507c0-.384.208-.72.52-.9l-.7-1.213a2.438 2.438 0 0 0-1.22 2.113h1.4Zm0 .87v-.87h-1.4v.87h1.4Zm.52.9a1.039 1.039 0 0 1-.52-.9h-1.4c0 .903.492 1.69 1.22 2.111l.7-1.211Zm.35 5.853V10.81h-1.4v5.248h1.4Zm-.731.988c.091-.158.223-.29.381-.382l-.7-1.212c-.37.214-.68.523-.893.893l1.212.7Zm-3.448.35h2.842v-1.4H5.652v1.4Zm-.7-1.875v1.174h1.4v-1.174h-1.4Zm-.3-.3a.3.3 0 0 1 .3.3h1.4a1.7 1.7 0 0 0-1.7-1.7v1.4Zm-.608 0h.608v-1.4h-.608v1.4Zm-.3.3a.3.3 0 0 1 .3-.3v-1.4a1.7 1.7 0 0 0-1.7 1.7h1.4Zm0 3.652v-3.651h-1.4v3.652h1.4Zm.3.3a.3.3 0 0 1-.3-.3h-1.4a1.7 1.7 0 0 0 1.7 1.7v-1.4Zm.608 0h-.608v1.4h.608v-1.4Zm.3-.3a.3.3 0 0 1-.3.3v1.4a1.7 1.7 0 0 0 1.7-1.7h-1.4Zm0-.739v.74h1.4v-.74h-1.4Zm3.542-.7H5.652v1.4h2.842v-1.4Zm1.507.87c-.384 0-.72-.208-.9-.52l-1.213.701a2.438 2.438 0 0 0 2.113 1.219v-1.4Zm.9-.52c-.18.312-.517.52-.9.52v1.4c.903 0 1.69-.492 2.112-1.219l-1.212-.701Zm3.446-.35h-2.84v1.4h2.84v-1.4Zm.7 1.44v-.74h-1.4v.74h1.4Zm.3.3a.3.3 0 0 1-.3-.3h-1.4a1.7 1.7 0 0 0 1.7 1.7v-1.4Zm.609 0h-.609v1.4h.609v-1.4Zm.3-.3a.3.3 0 0 1-.3.3v1.4a1.7 1.7 0 0 0 1.7-1.7h-1.4Zm0-3.652v3.652h1.4v-3.652h-1.4Zm-.3-.3a.3.3 0 0 1 .3.3h1.4a1.7 1.7 0 0 0-1.7-1.7v1.4Zm-.609 0h.609v-1.4h-.609v1.4Zm-.3.3a.3.3 0 0 1 .3-.3v-1.4a1.7 1.7 0 0 0-1.7 1.7h1.4Zm0 1.173v-1.174h-1.4v1.174h1.4Zm-3.54.7h2.84v-1.4h-2.84v1.4Zm-.988-.73c.159.09.29.223.382.38l1.212-.7a2.449 2.449 0 0 0-.893-.893l-.7 1.212Zm-.35-5.854v5.247h1.4v-5.247h-1.4Zm.87-1.507c0 .384-.207.72-.52.9l.701 1.213a2.438 2.438 0 0 0 1.22-2.113h-1.4Zm0-.87v.87h1.4v-.87h-1.4Zm-.52-.9c.313.18.52.517.52.9h1.4c0-.903-.491-1.691-1.219-2.112l-.7 1.212Zm-.35-2.81v2.204h1.4V4.723h-1.4Zm.732-.988c-.091.158-.224.29-.382.381l.701 1.212c.37-.214.678-.522.893-.892L10.9 3.736Zm3.446-.35h-2.84v1.4h2.84v-1.4Zm.7 1.44v-.74h-1.4v.74h1.4Zm.3.3a.3.3 0 0 1-.3-.3h-1.4a1.7 1.7 0 0 0 1.7 1.7v-1.4Zm.609 0h-.609v1.4h.609v-1.4Zm.3-.3a.3.3 0 0 1-.3.3v1.4a1.7 1.7 0 0 0 1.7-1.7h-1.4Zm0-3.652v3.652h1.4V1.174h-1.4Zm-.3-.3a.3.3 0 0 1 .3.3h1.4a1.7 1.7 0 0 0-1.7-1.7v1.4Zm-.609 0h.609v-1.4h-.609v1.4Zm-.3.3a.3.3 0 0 1 .3-.3v-1.4a1.7 1.7 0 0 0-1.7 1.7h1.4Zm0 1.173V1.174h-1.4v1.173h1.4Zm-3.54.7h2.84v-1.4h-2.84v1.4Zm-1.506-.87c.383 0 .72.208.9.52l1.212-.7a2.439 2.439 0 0 0-2.112-1.22v1.4Zm-.901.52c.18-.312.517-.52.9-.52v-1.4c-.903 0-1.691.493-2.112 1.22l1.212.7Zm-3.448.35h2.842v-1.4H5.652v1.4Zm-.7-1.873v1.173h1.4V1.174h-1.4Zm-.3-.3a.3.3 0 0 1 .3.3h1.4a1.7 1.7 0 0 0-1.7-1.7v1.4Zm-.608 0h.608v-1.4h-.608v1.4Z" mask="url(#path-1-inside-1_3435_38504)"/></svg>