<svg xmlns="http://www.w3.org/2000/svg" width="20" height="20" fill="none" viewBox="0 0 20 20"><path fill="#363636" stroke="#363636" stroke-width=".3" d="M3.182 4.158a.495.495 0 0 1-.358-.603l.358.603Zm0 0 10.22 2.605-.4 1.248a.494.494 0 0 0 .038.39M3.182 4.158 13.04 8.4m2.19.729-1.88-.49 1.88.49Zm0 0-.291.173a.494.494 0 0 0 .256.92.494.494 0 0 0 .257-.071l1.439-.862a.494.494 0 0 0 .17-.68l-1.832.52Zm-.89-2.883.132-.073c.067.12.08.26.039.39l-.402 1.25 1.552.405-.293-.484a.494.494 0 0 1 .17-.68.498.498 0 0 1 .681.168l.841 1.387L3.392 3.344 14.123 6.08a.348.348 0 0 1 .218.167Zm0 0 .132-.073a.498.498 0 0 0-.311-.24L3.428 3.2a.498.498 0 0 0-.605.356L14.34 6.247ZM13.04 8.4a.497.497 0 0 0 .31.24l.038-.145a.347.347 0 0 1-.243-.439l.403-1.257-.508 1.601Zm-6.558 1.693a.549.549 0 0 1 .436-.216h1.543v1.77H5.31l1.173-1.554Zm11.006 4.315h-.642a1.88 1.88 0 0 0-1.768-1.248 1.88 1.88 0 0 0-1.769 1.248H7.123a1.88 1.88 0 0 0-1.768-1.248 1.88 1.88 0 0 0-1.769 1.248H2.511v-1.77h13.956c.44 0 .667.095.803.311.074.117.13.282.166.514.037.231.052.521.052.883v.062Zm-2.41 1.514a.89.89 0 0 1-.892-.886c0-.487.4-.885.892-.885a.89.89 0 0 1 .892.886.89.89 0 0 1-.892.885Zm-9.723 0a.89.89 0 0 1-.891-.886c0-.487.399-.885.891-.885a.89.89 0 0 1 .892.886.89.89 0 0 1-.892.885Zm6.512-5.829 1.173 1.554H9.455v-1.77h1.976a.55.55 0 0 1 .436.216Zm4.6 1.555h-2.182L12.663 9.5a1.549 1.549 0 0 0-1.231-.612H6.918c-.482 0-.942.229-1.23.612L4.064 11.65h-2.05a.496.496 0 0 0-.498.495v2.76c0 .275.224.495.497.495h1.5a1.879 1.879 0 0 0 3.684 0h6.038a1.88 1.88 0 0 0 3.685 0h1.065c.274 0 .498-.22.498-.495V14.334c0-.469 0-1.133-.247-1.68a1.599 1.599 0 0 0-.611-.718c-.292-.183-.67-.287-1.159-.287Z"/></svg>