<svg xmlns="http://www.w3.org/2000/svg" width="20" height="20" fill="none" viewBox="0 0 20 20"><path fill="#363636" d="M10.689 10.555a2.083 2.083 0 0 1 2.083 2.083l-.001 1.04c.143 2.55-1.822 3.823-5.465 3.823-3.631 0-5.639-1.256-5.639-3.787v-1.076a2.083 2.083 0 0 1 2.083-2.083h6.939Zm5.555 0a2.083 2.083 0 0 1 2.083 2.083v.732c.125 2.288-1.61 3.435-4.784 3.435-.43 0-.835-.021-1.213-.063.4-.365.707-.821.896-1.33l.317.004c2.479 0 3.47-.655 3.396-2.008v-.77a.694.694 0 0 0-.694-.694h-2.866a2.778 2.778 0 0 0-.854-1.389h3.72Zm-5.555 1.389H3.75a.695.695 0 0 0-.694.694v1.077c0 1.59 1.289 2.397 4.25 2.397 2.95 0 4.166-.788 4.077-2.396v-1.078a.694.694 0 0 0-.694-.694ZM7.222 2.222a3.473 3.473 0 1 1 0 6.946 3.473 3.473 0 0 1 0-6.946Zm6.944 1.389a2.778 2.778 0 1 1 0 5.555 2.778 2.778 0 0 1 0-5.555Zm-6.944 0a2.084 2.084 0 1 0 0 4.168 2.084 2.084 0 0 0 0-4.168ZM14.166 5a1.389 1.389 0 1 0 0 2.777 1.389 1.389 0 0 0 0-2.777Z"/></svg>