<svg xmlns="http://www.w3.org/2000/svg" width="20" height="20" fill="none" viewBox="0 0 20 20"><path fill="#363636" d="M15 8.333a3.333 3.333 0 0 1 2.5 5.54v3.834a.624.624 0 0 1-.908.558l-.075-.046L15 17.16l-1.516 1.06a.625.625 0 0 1-.977-.425l-.006-.087v-3.835a3.333 3.333 0 0 1 2.5-5.539Zm1.25 6.425a3.324 3.324 0 0 1-2.5 0v1.75l.893-.623a.625.625 0 0 1 .632-.05l.084.05.891.623v-1.75Zm-.208-12.255a2.291 2.291 0 0 1 2.287 2.152l.005.14v4.372a4.19 4.19 0 0 0-1.25-1.11V4.796a1.042 1.042 0 0 0-.935-1.037l-.107-.005H3.959a1.042 1.042 0 0 0-1.037.935l-.005.107v7.917c0 .539.41.983.935 1.036l.107.005 7.435.001.102.17.112.163.059.078v.838H3.958a2.292 2.292 0 0 1-2.288-2.152l-.004-.14V4.796a2.292 2.292 0 0 1 2.152-2.287l.14-.005h12.083ZM15 9.583a2.084 2.084 0 1 0 0 4.168 2.084 2.084 0 0 0 0-4.168Zm-5.625.834a.625.625 0 0 1 .085 1.244l-.085.006h-3.75a.625.625 0 0 1-.085-1.244l.085-.006h3.75Zm5-4.584a.625.625 0 0 1 .085 1.245l-.085.005h-8.75A.625.625 0 0 1 5.54 5.84l.085-.006h8.75Z"/></svg>