<svg xmlns="http://www.w3.org/2000/svg" width="20" height="20" fill="none" viewBox="0 0 20 20"><path fill="#363636" d="M18.214 2.681h-3.75V1.253a.179.179 0 0 0-.178-.179h-1.25a.18.18 0 0 0-.179.179V2.68H7.143V1.253a.18.18 0 0 0-.179-.179h-1.25a.18.18 0 0 0-.178.179V2.68h-3.75a.714.714 0 0 0-.715.715v14.821c0 .395.32.714.715.714h16.428c.395 0 .714-.319.714-.714V3.396a.714.714 0 0 0-.714-.715Zm-.893 14.643H2.678V8.842h14.643v8.482Zm-14.643-10V4.29h2.858v1.07c0 .1.08.18.178.18h1.25a.18.18 0 0 0 .179-.18V4.29h5.714v1.07c0 .1.08.18.179.18h1.25c.098 0 .178-.08.178-.18V4.29h2.857v3.035H2.678Z"/></svg>