<svg xmlns="http://www.w3.org/2000/svg" width="20" height="20" fill="none" viewBox="0 0 20 20"><path fill="#363636" d="M17.52 16.966c1.104-.747.572-2.474-.756-2.474h-1.178a.503.503 0 0 0-.504.503v2.83c0 .667 1.007.664 1.007 0v-.628h.286l.863.964c.44.49 1.2-.169.75-.672l-.469-.523Zm-1.43-1.468h.674c.457 0 .457.692 0 .692h-.675v-.692ZM3.809 16.654c1.388-.255 1.202-2.321-.21-2.321H2.176c-.665 0-.665 1.006 0 1.006H3.6c.194 0 .219.29.028.325-2.269.415-2.293 2.413-1.45 2.413h2.085c.665 0 .666-1.007 0-1.007h-1.42c.24-.331.536-.337.967-.416ZM2.46 2.674h.256v2.249c0 .667 1.007.664 1.007 0V2.17a.503.503 0 0 0-.503-.503h-.76c-.668 0-.664 1.007 0 1.007ZM10.268 4.404H8.866c-.665 0-.665 1.007 0 1.007h1.402c.961 0 1.523-1.09.97-1.872.552-.781-.007-1.872-.97-1.872H8.866c-.665 0-.665 1.007 0 1.007h1.402c.239 0 .239.362 0 .362h-.854c-.665 0-.666 1.006 0 1.006h.854c.239 0 .239.362 0 .362ZM11.123 15.906h-.291v-.976c0-.666-1.007-.666-1.007 0v.976H9.17v-.976c0-.666-1.006-.666-1.006 0v1.48c0 .278.225.503.503.503h1.158v.754c0 .665 1.007.665 1.007 0v-.754h.29c.666 0 .667-1.007 0-1.007ZM16.828 4.404h-1.146c-.665 0-.666 1.007 0 1.007h1.146c1.575 0 1.575-2.375 0-2.375h-.58l.043-.362h1.226c.665 0 .665-1.007 0-1.007h-1.674a.503.503 0 0 0-.5.444l-.16 1.369a.504.504 0 0 0 .5.562h1.145c.245 0 .245.362 0 .362ZM16.082 13.31c0 .665 1.006.666 1.006 0V6.683c0-.665-1.006-.666-1.006 0v2.81h-4.255a2.003 2.003 0 0 0-1.429-1.429v-1.38c0-.666-1.006-.667-1.006 0v1.38a2.003 2.003 0 0 0-1.43 1.43H3.709v-2.81c0-.666-1.007-.667-1.007 0v6.626c0 .665 1.007.666 1.007 0V10.5h4.255a2.003 2.003 0 0 0 1.429 1.429v1.381c0 .665 1.006.666 1.006 0V11.93a2.003 2.003 0 0 0 1.43-1.429h4.254v2.81Zm-5.197-3.313a.991.991 0 0 1-1.98 0 .991.991 0 0 1 1.98 0Z"/></svg>